/* XPM */
static char *d247e9a0a19348a983f27c476ee5df0dSmM6qN3B10mUxIJl[] = {
/* columns rows colors chars-per-pixel */
"32 32 5 1 ",
"  c None",
". c #110B09",
"X c #31C082",
"o c #319DC0",
"O c #F1D5CB",
/* pixels */
"                                ",
"                                ",
"                                ",
"         OOOOOOOOOOOOOO         ",
"         OOOOOOOOOOOOOO         ",
"         OOOOOOOOOOOOOO         ",
"         ....OOOOOO....         ",
"         ....OOOOOO....         ",
"         ....OOOOOO....         ",
"         ....OOOOOO....         ",
"         OOOOOOOOOOOOOO         ",
"         OOOOOOOOOOOOOO         ",
"         OOOOOOOOOOOOOO         ",
"         XXXXXXXXXXXXXX         ",
"         XXXXXXXXXXXXXX         ",
"         XXXXXXXXXXXXXX         ",
"         XXXXXXXXXXXXXX         ",
"         XXXXXXXXXXXXXX         ",
"         XXXXXXXXXXXXXX         ",
"         XXXXXXXXXXXXXX         ",
"         XXXXXXXXXXXXXX         ",
"         oooooooooooooo         ",
"         oooooooooooooo         ",
"         oooooooooooooo         ",
"         oooooooooooooo         ",
"         oooo      oooo         ",
"         oooo      oooo         ",
"         oooo      oooo         ",
"                                ",
"                                ",
"                                ",
"                                "
};
