/* XPM */
static char *c49b682d7bfc44ee86b8878acfc4d3c4w6KvyT33RdDyPlm4[] = {
/* columns rows colors chars-per-pixel */
"64 64 256 2 ",
"   c black",
".  c #010101",
"X  c #020202",
"o  c gray1",
"O  c #040404",
"+  c gray2",
"@  c #060606",
"#  c #070707",
"$  c gray3",
"%  c #090909",
"&  c gray4",
"*  c #0B0B0B",
"=  c #0C0C0C",
"-  c gray5",
";  c #0E0E0E",
":  c gray6",
">  c #101010",
",  c #111111",
"<  c gray7",
"1  c #131313",
"2  c gray8",
"3  c #151515",
"4  c #161616",
"5  c gray9",
"6  c #181818",
"7  c #191919",
"8  c gray10",
"9  c #1B1B1B",
"0  c gray11",
"q  c #1D1D1D",
"w  c #1E1E1E",
"e  c gray12",
"r  c #202020",
"t  c gray13",
"y  c #222222",
"u  c #232323",
"i  c gray14",
"p  c #252525",
"a  c gray15",
"s  c #272727",
"d  c #282828",
"f  c gray16",
"g  c #2A2A2A",
"h  c gray17",
"j  c #2C2C2C",
"k  c #2D2D2D",
"l  c gray18",
"z  c #2F2F2F",
"x  c gray19",
"c  c #313131",
"v  c #323232",
"b  c gray20",
"n  c #343434",
"m  c #353535",
"M  c gray21",
"N  c #373737",
"B  c gray22",
"V  c #393939",
"C  c #3A3A3A",
"Z  c gray23",
"A  c #3C3C3C",
"S  c gray24",
"D  c #3E3E3E",
"F  c #3F3F3F",
"G  c gray25",
"H  c #414141",
"J  c gray26",
"K  c #434343",
"L  c #444444",
"P  c gray27",
"I  c #464646",
"U  c gray28",
"Y  c #484848",
"T  c #494949",
"R  c gray29",
"E  c #4B4B4B",
"W  c #4C4C4C",
"Q  c gray30",
"!  c #4E4E4E",
"~  c gray31",
"^  c #505050",
"/  c #515151",
"(  c gray32",
")  c #535353",
"_  c gray33",
"`  c #555555",
"'  c #565656",
"]  c gray34",
"[  c #585858",
"{  c gray35",
"}  c #5A5A5A",
"|  c #5B5B5B",
" . c gray36",
".. c #5D5D5D",
"X. c gray37",
"o. c #5F5F5F",
"O. c #606060",
"+. c gray38",
"@. c #626262",
"#. c gray39",
"$. c #646464",
"%. c #656565",
"&. c gray40",
"*. c #676767",
"=. c #686868",
"-. c DimGray",
";. c #6A6A6A",
":. c gray42",
">. c #6C6C6C",
",. c #6D6D6D",
"<. c gray43",
"1. c #6F6F6F",
"2. c gray44",
"3. c #717171",
"4. c #727272",
"5. c gray45",
"6. c #747474",
"7. c gray46",
"8. c #767676",
"9. c #777777",
"0. c gray47",
"q. c #797979",
"w. c gray48",
"e. c #7B7B7B",
"r. c #7C7C7C",
"t. c gray49",
"y. c #7E7E7E",
"u. c gray50",
"i. c #808080",
"p. c #818181",
"a. c gray51",
"s. c #838383",
"d. c #848484",
"f. c gray52",
"g. c #868686",
"h. c gray53",
"j. c #888888",
"k. c #898989",
"l. c gray54",
"z. c #8B8B8B",
"x. c gray55",
"c. c #8D8D8D",
"v. c #8E8E8E",
"b. c gray56",
"n. c #909090",
"m. c gray57",
"M. c #929292",
"N. c #939393",
"B. c gray58",
"V. c #959595",
"C. c gray59",
"Z. c #979797",
"A. c #989898",
"S. c gray60",
"D. c #9A9A9A",
"F. c #9B9B9B",
"G. c gray61",
"H. c #9D9D9D",
"J. c gray62",
"K. c #9F9F9F",
"L. c #A0A0A0",
"P. c gray63",
"I. c #A2A2A2",
"U. c gray64",
"Y. c #A4A4A4",
"T. c #A5A5A5",
"R. c gray65",
"E. c #A7A7A7",
"W. c gray66",
"Q. c #A9A9A9",
"!. c #AAAAAA",
"~. c gray67",
"^. c #ACACAC",
"/. c gray68",
"(. c #AEAEAE",
"). c #AFAFAF",
"_. c gray69",
"`. c #B1B1B1",
"'. c #B2B2B2",
"]. c gray70",
"[. c #B4B4B4",
"{. c gray71",
"}. c #B6B6B6",
"|. c #B7B7B7",
" X c gray72",
".X c #B9B9B9",
"XX c gray73",
"oX c #BBBBBB",
"OX c #BCBCBC",
"+X c gray74",
"@X c gray",
"#X c gray75",
"$X c #C0C0C0",
"%X c #C1C1C1",
"&X c gray76",
"*X c #C3C3C3",
"=X c gray77",
"-X c #C5C5C5",
";X c #C6C6C6",
":X c gray78",
">X c #C8C8C8",
",X c gray79",
"<X c #CACACA",
"1X c #CBCBCB",
"2X c gray80",
"3X c #CDCDCD",
"4X c #CECECE",
"5X c gray81",
"6X c #D0D0D0",
"7X c gray82",
"8X c #D2D2D2",
"9X c LightGray",
"0X c gray83",
"qX c #D5D5D5",
"wX c gray84",
"eX c #D7D7D7",
"rX c #D8D8D8",
"tX c gray85",
"yX c #DADADA",
"uX c gray86",
"iX c gainsboro",
"pX c #DDDDDD",
"aX c gray87",
"sX c #DFDFDF",
"dX c gray88",
"fX c #E1E1E1",
"gX c #E2E2E2",
"hX c gray89",
"jX c #E4E4E4",
"kX c gray90",
"lX c #E6E6E6",
"zX c #E7E7E7",
"xX c gray91",
"cX c #E9E9E9",
"vX c #EAEAEA",
"bX c gray92",
"nX c #ECECEC",
"mX c gray93",
"MX c #EEEEEE",
"NX c #EFEFEF",
"BX c gray94",
"VX c #F1F1F1",
"CX c gray95",
"ZX c #F3F3F3",
"AX c #F4F4F4",
"SX c gray96",
"DX c #F6F6F6",
"FX c gray97",
"GX c #F8F8F8",
"HX c #F9F9F9",
"JX c gray98",
"KX c #FBFBFB",
"LX c gray99",
"PX c #FDFDFD",
"IX c #FEFEFE",
"UX c white",
/* pixels */
"+ @ $ & * $ , s ; 3 4 6 7 9 7 < 3 5 6 6 < y N # 7 0 e q q 0 2 5 8 5 2 , N q = > : ; ; - - * & * * = % < 0 @ & = & $ $ $ $ # @ @ ",
"o O O + $ $ < d & : : 2 6 6 6 6 3 7 7 6 < w D # 2 3 6 8 9 0 4 6 6 2 , ; n s ; , ; : > ; = - ; : ; : & 1 8 O $ $ @ @ @ @ @ @ @ + ",
"X o + @ @ o > h % $ $ # $ & = $ + * % $ . 0 m = = % X X @ # O O @ = o   2 6 # $ * % % @ # % & * # $ X 1 y $ @ O o @ # O O @ + # ",
"& < 7 w i s n D m C F G A A P P U J H I ` 4.q.3._ R ~ A m b j z c B N B G j 0 g z B C x c b h i f i p N m m h a i u w w u q 3 5 ",
"* = - 1 4 5 t y 6 3 9 y p l C V J K S F E U W A D S G ` 5.` r w w 0 q 0 t 0 r a 9 r u 0 r w 7 q w , 5 6 > , 1 : ; > > : 6 e * * ",
"o X + # % * * = & = , : : < , , > , : , > = : 1 2 5 4 ; b R > 7 0 q 6 2 2 6 8 9 6 1 < 2 , > : = o + * 3 4 1 < > : : - $ 3 u & = ",
"O O # & = - : < 3 2 4 4 7 w r 9 5 9 y y i q 6 9 7 q e 5 q I 7 r i s 0 w e w e q e u e 0 0 e 0 8 8 < < 7 q 5 2 4 2 > - - 2 i > < ",
"O @ # * : , 2 2 6 5 3 4 3 e e 8 0 t 9 w t g p r t r e 8 g ( 2 6 e u i r w q u t t r a p i p w 5 4 7 q q q 9 8 9 8 1 > : 3 y - 1 ",
"+ @ @ % = = - * - 1 < 4 1 2 1 2 4 4 , 6 7 w u w e q 0 9 1 ) ; % $ X O = * O % $ : & $ % & % % O o * ; , < > - & & & $ . 5 e O @ ",
". o O O O O % = - * % $ * - , 1 4 8 0 4 1 6 7 5 9 0 0 r l *.| C A P K M C G H D H G A C c l b A N h l r 4 9 7 0 w q 0 0 h g 6 4 ",
"- : 4 e a k c b x l b D C J ~ { } ` | +.%.&.o.X.J B A G Q W ) Q S _ [ ( 5.-.*.| ) ^ ~ T R Q L C C C b ~ L d r f c n z s q 7 2 4 ",
"# % = < 4 > 9 C : > 3 e 6 4 5 y r w y d h a #.u - 3 , 2 5 w q 8 t e 4 3 q.L y l t 9 q 3 ; - 5 4 6 r , y ~ 0 3 7 < , 3 6 2 , : > ",
"  o O + $ + 2 m % 1 8 8 2 y i s g z x j s s %.r 8 d h d p l s u i p d 7 q.P p z m m x l j u p f f i y > Z 0 e i 8 7 0 w 3 1 2 < ",
"o + # & - ; - v 1 2 7 q y g i a z x x N B d O.x a d p 6 e p d j d e f y } G l j n c x f l z j h f j g r P t q u q w e r 9 7 1 > ",
"o O # % ; : : b $ = 0 u d j t d v j z g l h ..3 5 r 3 0 7 s g c z p a 7 V J l z k l m v h y z d s d s y { y > 4 5 1 : = < 5 : & ",
". . X o # @ # n 5 1 3 3 2 4 3 , < , < ; % $ N h 9 = 4 : * 1 9 6 > * < , A S 8 9 9 6 3 7 6 8 q 9 0 w 9 9 ! ! c g y g p i q 6 u e ",
"& , 3 8 r u h L / ~ ( _ Q E Y R Y P T ) / _ e.B.f.1.q.8.*.+.#.1.g.z.A.z.t.i.*.6.u.r.4.6.e.0.X.o.^ ..#.T @.$.( ^ I L W K ! J l l ",
"= & & > 1 6 7 9 7 4 8 t y d d x s d p p a M v l Z B V K z s.+.Y ~ _ ..b l T ) / R P T R H F L V a h g 9 6 = = < 1 2 < o h h O : ",
"# O # $ $ * = - : , 2 3 8 3 6 w 9 3 7 , $ : t y p a h f y 7.D x x e v g v C C V D B m V D A A Z D C x m n d y p f p t 8 g b o 1 ",
"@ @ % $ = ; ; < 3 0 w 1 5 8 7 5 0 u e 0 7 6 9 a f a d h q :.U G D G G K m U B m D H P J D V B M M n b V x h d f h l z i b D * , ",
"@ @ $ * = : 3 6 9 9 e q 0 w 9 y h k l y e a i d u p v Z p <.G C K J A D G ] P L U L K I F S M V m j h l b l s g g z x e C c = 2 ",
"O O o + $ + o $ $ O # % > - = : = ; > : 5 < p w > = 5 q * / k ; y 9 w i t e 0 5 q u f d u j c a a f f h u i s t w i r e L G < 8 ",
"= = < 7 w y p f v H _  .-.>.>.$.%.@.| ' @.' ..$.X.&.` ` =.K.D.l.h.d.[ R / 8.c.l.5.*.4.$.1.9.T.N.j.0.d.z.q.w.t.w.9.*.X.~  .X.P S ",
"& - < 8 u g t M ~ S P U I Q ( ( ' _ %.5.:.s._.A.N.x.s.4.q.8.e.g.a.w.z.q.7.c.2.6.*.( X.$. .L ^ W ( ( ~ ` 2.i.I P V z h 8 0 8 2 4 ",
". + @ # + = - 3 A - ; ; , < 1 2 6 8 4 4 e q *.:.s c f r f m r v V z g z A <.9 j n c S J n B C V b j j f L 4.: y 7 9 2 8 p u 7 5 ",
"O @ % = = < 1 < Y e 9 w e r q 0 p f f h x a Y -.0 n D J R T I E ) T M z { B.a Z B Z K K T E L S S S J N G 1.5 e 9 y p i s u q 4 ",
"+ @ # & ; 2 & 3 P 6 0 w w r w e i d s a z h A  .d B I L T T P Y E F A s <.A.0 p s v U R D P G C N V H c V 9.9 f p e d g g y r 9 ",
"+ o o O @ # o - J 2 1 9 9 9 8 8 i p y g z u G ( 7 k p h C B B n M D B f ~ A.9 k i l M M B Z A B c g w u 8 ( 4 3 9 w 8 q 9 q : - ",
"o + $ & - 3 7 M ~ e 0 5 8 5 e a y 0 y t y 7 } F.W ` X. .Y D c D Y M A c X.E.M k p a s n Z n C N l j j b D n.:.{ _ T Y M l h n n ",
"% < 2 5 t l m P W Q ) ' X.2.5.9.5.3.5.4.5.r.c.d.u.0.9.r.Z.L.`.Q.v.-.d.e.e._.a.,.s.s.8.&.f.p.f.c.b.l.a.0.t.9. .I L L K P ( #.m C ",
"@ = X @ # & * < 9 7 y a l b l v V m A D g v i y c b f d p F }.Q l M k t z x M A V b Z D N M F S F M x c z b e 0 p g u 9 e ~ 3 t ",
"& $ o % = : 6 7 6 5 8 t u w i t h b M h n V M H C F F G F M S.A S S m m x b Y I N V S V V k C Z B m B M B M z C n B m k s T q s ",
"% $ # = , 3 2 3 6 8 w t t i y f x h d a C C b z Z S C J m x L.N S A Z N a i D D I H M S m j A F Z H E H F F A Z j s v k t F y j ",
"# + $ ; 1 3 4 2 8 q q q 8 w q u g d s w j f g j m H A M g k M.c U S F D A T M z S G P P C m Y ^ ) W R W J j V A C B d d 4 p 1 8 ",
"$ + o @ $ @ % % & - , 3 , * 2 2 1 9 q = < q 9 a g h p f i ` Q.g f k l k g l p d s h p f l k v z z n m x 7 > s c h f y r 0 N b g ",
"& - , 4 0 i u s v C G D T W W ) O.>.4.p.i.+.$.{ I ` 3.=.o.U.].y.o.2.7.5.t.e.,.2.,.y.a.q.,.@.=.$.&.) ] | 2.=.m K M g k h Z K c d ",
"X @ & - > 9 1 h h u a 9 r u w s j V D Q R b +.V x b x b k s z J J L S g g.6.l M G ~ L D Z M I J n d l d &.>., w t w w 0 6 5 3 3 ",
". O + $ & ; $ 8 p * < 7 7 7 s d a p y p s u X.M K D G F D n G S C S N u =.-.C V A z k d g b v N v c l g Q +.8 z s p a p t q 0 q ",
"X + # % - 2 = e f > 9 e t t d h k h f b b k | l Z U F J V m S J S C K x $.:.Z U Z V B B V B S n x C z g ) -.t i s a f i t w 6 3 ",
"X O % * = = + e a : 9 w t u p g z l k v c M ( j c B v z b C V L H F A p ;.[ k I U U S E U J U Z x B j k R ] u g a s p p r 0 4 , ",
". o @ $ $ $ O u 9 O & - : < 1 - ; q 0 q , = n r 9 e < 6 i y p j h u 8 * W m w d g z l k n v r p 5 0 s 7 t n < 6 5 6 2 1 - ; , : ",
"$ * < 4 w f c I F C Z Z S J J R ( T J P ) ;.v.y.%.>.3.#.o.t.M.c.x.K.n.d.!.u.K ] +. .` R H ~ [ ' ` ( T H >.v.-...| P H C m V c c ",
"% : ; 5 0 e d N F G F D L U S F ~ 1.5.#.5.t.j.e.w.8.5.v.e.] M.x.&.O.*.q.r.3. .t.1.o.) F G / 8.r.9.&.Q J ! / K Z F s t p a G N k ",
"+ # O @ $ = : ; - > 2 6 9 q w e w w u d r p u g p p r y y : =.Y 0 0 e h a r u y e h M V B n n x z v a r u t s f a f d y e V 3 7 ",
"@ @ @ & ; : 1 8 5 2 w r w 8 j j d f b N n N n M B M v v v i *.U q z m k x N M F S Z D V V Z Z N m n x x z g z k s f p w p F > 1 ",
"O @ @ % = > > > < 2 q 9 8 e u s h z b Z M N N Z F F P B b 0 Y l 6 i n g h B A S Z G J N C N N n j g l c x k j f d s i u e b 1 4 ",
"O # O @ % = & * = 3 9 2 5 u 8 q t g d 0 y k x k l n S V m 0 j e 7 z u h c v v k l x v n M g k g g d p u s d i y r y 8 3 7 V & < ",
"+ * # % ; & - > = 1 5 7 q e r y e r 5 t 0 1 5 9 8 3 0 u p a j ! g q r r i w p x b N F A S G J S N b c h s w t i p p y 0 g Y 8 < ",
"+ - : 1 9 y a z S v b b v B U P L ) ( =.` H ~ [ Z z M m S J [ O.E c C H D / #.R / T D U J D S S N c M c z ' M u k g j s y h p w ",
"X o O O @ * = 8 v - , : > : 2 4 2 q a y t g o.Z w r q 0 w r q w p y a j u W o.7 d f t t u y a f s a e a 0 L 5 , 5 2 3 < : * : - ",
". X O + @ # $ $ e < 2 8 9 0 q e u y i e u 0 m f q s i a p a s d f h k d a ~ ' w d d f s e u g j h d u s i C 4 4 7 4 4 < , > : : ",
". o O @ # % * & a < 1 4 4 7 q e r r t u d q N c w y r u i y u s s d x g k ! ` t t u p d u 7 p d i e r e q G 8 < 3 3 1 , : : : ; ",
"  X o + @ $ & = q : 3 4 3 3 7 q r e e u i w L f 4 w 6 - : 7 r w e a i i r K W 0 w t 0 7 q 9 0 q q 9 9 8 , m 8 . & = ; - * & - * ",
". o . . X o X X - O $ & % $ @ % - - 2 & % = H N & 3 , i s q , ; - : , 4 2 V ( s u u i r t t 0 q t t y t 7 I S 4 9 q 5 2 1 > * : ",
"X + - < 1 5 9 u g s d i h V A C A D k c H G  .+.) &.&.3.;.X.' K g t d z L _ ) I Z M H F M x n b b m z a l v x k j k f p i e y w ",
". $ * - : < 7 q r t a d u g v V z n a c V f r r j N z g g a ^ _ r 4 6 5 q 0 5 < 2 4 6 6 1 4 5 4 6 7 * % : ; , > - & - - = ; q : ",
". $ o X + @ O O $ $ $ & & , : ; # > 5 ; : - < 7 < : 1 3 7 * A j = 8 e r y 9 7 6 8 w e e q q 8 0 e e < * 1 5 7 6 4 1 : ; ; * 0 - ",
"  + O O # % & = - ; > > 2 3 2 2 , 3 6 6 4 2 < 3 2 4 5 6 7 < b e 2 8 7 e e 2 7 8 7 7 7 8 6 7 9 9 7 8 > ; > < 4 2 < > ; ; = # 5 = ",
"  + O + @ # $ & = ; > , > : 1 1 : < 2 2 4 6 4 < 1 2 3 1 < ; l 0 4 8 8 q 0 8 5 2 1 < < , > > > < 2 2 = & - : < , : : ; = % @ 4 & ",
". + o o O O + O # & & * & % = * % , 1 2 2 5 1 > ; > : ; : X h 6 @ & % = = * & # # $ $ % $ # % $ & $ O + $ & & $ $ % $ $ # O > + ",
". + @ # % * - ; - > , 1 6 9 r r 3 < < 1 1 > : 2 < 1 < > ; 7 D n p i 0 7 2 2 4 3 4 6 6 5 6 4 < 2 2 4 3 3 , ; : : ; = & & % & > % ",
". o O + @ $ @ : 9 8 q q u d d d p u u d k y h 8 > , , : > 6 9 5 1 > < 2 9 y 0 3 4 9 9 6 4 2 1 1 , : > , = > ; % $ @ + @ @ # $ @ ",
"        . .   % = X @ O X O O O @ @ # & * $ y > + $ $ % * % # & & # + o O , #         X X       . .       + o                   ",
"& % * - = = $ 1 3 % : ; - : > > , , < > < = w 7 : 4 2 2 1 1 > , , < : = - u : & = = = - * % - - = - = ; = 2 % @ # # # & # % % @ "
};
