/* XPM */
static char *_731b2df400249f3b06ce028153bc421adQkSxvw81dIIMAF[] = {
/* columns rows colors chars-per-pixel */
"64 64 244 2 ",
"   c None",
".  c #0D0200",
"X  c #130200",
"o  c #1C0100",
"O  c #1C0C00",
"+  c #150B00",
"@  c #1D1200",
"#  c #171807",
"$  c #1B1C13",
"%  c #191A15",
"&  c #190E16",
"*  c #230200",
"=  c #2B0100",
"-  c #230C00",
";  c #2D0A00",
":  c #340300",
">  c #330C00",
",  c #3A0D00",
"<  c #390400",
"1  c #221201",
"2  c #281605",
"3  c #3C1300",
"4  c #3E1C00",
"5  c #351500",
"6  c #231917",
"7  c #1B2013",
"8  c #1E201C",
"9  c #19210A",
"0  c #352101",
"q  c #3A2301",
"w  c #302A14",
"e  c #393C3C",
"r  c #383837",
"t  c #35302C",
"y  c #490C00",
"u  c #441300",
"i  c #4A1400",
"p  c #441A00",
"a  c #4B1C00",
"s  c #541D00",
"d  c #5C1E00",
"f  c #452200",
"g  c #4B2300",
"h  c #4C2900",
"j  c #442A04",
"k  c #542400",
"l  c #5B2400",
"z  c #552B00",
"x  c #5C2B00",
"c  c #543300",
"v  c #5D3500",
"b  c #5C3A03",
"n  c #483519",
"m  c #493714",
"M  c #632C00",
"N  c #612300",
"B  c #6C3400",
"V  c #663900",
"C  c #733C00",
"Z  c #793600",
"A  c #443725",
"S  c #563E28",
"D  c #483839",
"F  c #4D3737",
"G  c #3C4139",
"H  c #644201",
"J  c #6B4300",
"K  c #654902",
"L  c #7A4500",
"P  c #764600",
"I  c #795600",
"U  c #594224",
"Y  c #44443D",
"T  c #6F552F",
"R  c #5B451E",
"E  c #3B3D43",
"W  c #443944",
"Q  c #484846",
"!  c #5A4F57",
"~  c #61574E",
"^  c #62635E",
"/  c #7D6848",
"(  c #5F6362",
")  c #776D6E",
"_  c #853E00",
"`  c #873200",
"'  c #913D00",
"]  c #834600",
"[  c #844C00",
"{  c #8A4B00",
"}  c #964700",
"|  c #8E5200",
" . c #985800",
".. c #A35B00",
"X. c #9A6A05",
"o. c #9D750A",
"O. c #966C18",
"+. c #9C761A",
"@. c #8E6C10",
"#. c #A4730C",
"$. c #A9730C",
"%. c #AB7507",
"&. c #B87C04",
"*. c #A66D15",
"=. c #AA7112",
"-. c #AA7A13",
";. c #AB7C1B",
":. c #A67618",
">. c #B37A14",
",. c #B27B1C",
"<. c #B77A15",
"1. c #A16300",
"2. c #856528",
"3. c #926B28",
"4. c #997625",
"5. c #8E7031",
"6. c #A37B23",
"7. c #A67926",
"8. c #B67D25",
"9. c #A87234",
"0. c #805F29",
"q. c #C17E04",
"w. c #896F48",
"e. c #BC8202",
"r. c #BD830D",
"t. c #BA8508",
"y. c #AA821A",
"u. c #BB8413",
"i. c #B4831C",
"p. c #BC841B",
"a. c #BC8C1C",
"s. c #B78818",
"d. c #B68A17",
"f. c #9E803A",
"g. c #A98324",
"h. c #B38B24",
"j. c #B88827",
"k. c #BC9227",
"l. c #AC8631",
"z. c #B88934",
"x. c #C38402",
"c. c #CD8D06",
"v. c #C68809",
"b. c #D48C03",
"n. c #D58D0A",
"m. c #CD9504",
"M. c #CD930C",
"N. c #C9950A",
"B. c #D49304",
"V. c #DC9404",
"C. c #DB9B02",
"Z. c #D3930B",
"A. c #DB960C",
"S. c #DC9A0C",
"D. c #D59905",
"F. c #C48914",
"G. c #CB8B15",
"H. c #C2841A",
"J. c #C58D1D",
"K. c #CB8D1C",
"L. c #C78616",
"P. c #D48E17",
"I. c #CC9314",
"U. c #CC941C",
"Y. c #CA9518",
"T. c #D39414",
"R. c #DB9414",
"E. c #D69A13",
"W. c #DD9B12",
"Q. c #D1941B",
"!. c #D49C1A",
"~. c #DD9C1B",
"^. c #DA961A",
"/. c #E39C0C",
"(. c #E4980A",
"). c #E29514",
"_. c #E39C14",
"`. c #E99B14",
"'. c #E29D1A",
"]. c #E89819",
"[. c #F39C18",
"{. c #E8920D",
"}. c #DCA31C",
"|. c #D9A116",
" X c #DFA307",
".X c #EDAA01",
"XX c #EAA60B",
"oX c #F5A502",
"OX c #FDA502",
"+X c #F5AB01",
"@X c #FDAB02",
"#X c #F3A60D",
"$X c #FDA60A",
"%X c #F5AB0D",
"&X c #FDAB0B",
"*X c #F5B101",
"=X c #FDB102",
"-X c #F4B20C",
";X c #FDB10C",
":X c #F2B80F",
">X c #E4A316",
",X c #EBA513",
"<X c #E5A11D",
"1X c #EAA31B",
"2X c #EBAA1A",
"3X c #E6AB16",
"4X c #F5AB13",
"5X c #FCAC13",
"6X c #F5AC1A",
"7X c #FBAC1C",
"8X c #F7A419",
"9X c #FDB214",
"0X c #F5B31B",
"qX c #FDB31A",
"wX c #F6B416",
"eX c #EBB112",
"rX c #CC8D25",
"tX c #C38926",
"yX c #D18E26",
"uX c #CB9524",
"iX c #CC942C",
"pX c #C89827",
"aX c #D19425",
"sX c #D49A23",
"dX c #DA9C23",
"fX c #D4962A",
"gX c #C89935",
"hX c #CB923A",
"jX c #E39D25",
"kX c #DCA422",
"lX c #D7A426",
"zX c #D8A534",
"xX c #CAA131",
"cX c #E4A325",
"vX c #E8A625",
"bX c #F3AC23",
"nX c #FBAD22",
"mX c #FCB323",
"MX c #F7B62A",
"NX c #F1B12F",
"BX c #D09F40",
"VX c #CABFBD",
"CX c #DAD1C7",
"ZX c #E9DED2",
/* pixels */
"                                                                                                                                ",
"                                                                                                                                ",
"                                                t $ $ 7 $ $ 7 $ 7 7 9 $ % % % Q                                                 ",
"                                              VX2 1 O @ O O @ O @ O @ @ O + O n CX                                              ",
"                                      t % 6 6 m l.d.u.u.p.p.j.tX8.j.p.u.H.a.h.4.0 6 $ % Q                                       ",
"                                      2 + O O 4 F.S./.V./._.).].].].A.S./.V.|.-.5 - O X A CX                                    ",
"                              r 6 6 j f.h.d.p.F.A./._.W.S.C.S.S./.S.A./.S.V._.R.H.i.a.k.5.4 2 & !                               ",
"                              q o - p k.!.|.dXsXL.&.&.t.e.e.x.q.q.x.e.e.e.v.<.H.fXdX|.!.i.3 - * S                               ",
"                          U c 7.j.p.v.M.Q.H.j.9.u 3 f g k l d d N l s x g f > k 9.hXF.c.T.v.u.tX4.h T                           ",
"                      A 0 5.h.sX~.'.E.kXtXu < > * ; l.xXU.U.rXrXrXK.aXuXgX4.* * , : l sXkXE._.R.U.h.2.1                         ",
"                      q 5 k.!.Z.T.r.k.j.O.p 3 , u s }.wX%X%X0X0X0XwXqX#X0XN.i , 3 : k 6.h.a.F.T.A.}.;.; S                       ",
"                  A 0 4.k.Y.W.<Xu.u > ; g z.pXU.sX^.wX@X@X@X+X+X+X+X@X@X@X5XT.aXuXxX7.4 ; ; k uX_.A.Y.j.5.1                     ",
"                  4 5 k.|.m.T.F.:.f > > x kXeX-X#XqXoX$X&X@X@X@X@X@XOX&XOXOX9X%X%X0XJ.a 3 > h ;.F.Z.m.lXy.- n                   ",
"                U 5.tXI.m.vXF.i g g.gXuXE.4X+X+X+X&X&X&X&X@XOX@XOX@X&X&X@X@X@X@X+X.X2XQ.uXxX+.3 x dX}.Z.U.k.2.T                 ",
"                c i.~.W.T.F.:.a d cXMX7X5X+X@X@X&XOX@X@X+X@X@X@X@X@X=X+X@X@XOX@X@X@X&XqX#XMXK.y x 8.r.Z.S.|.o.K                 ",
"              q 7.Q.Z.~.L.i a p.<X5XOX@XOX@X@X@X$X&XOX@X=X+X@X@X@X@X+X@X@XOX&XOX@X@XOX@X@XOX8XjX=.< M sXA.A.U.+.;               ",
"            & * tXR.Q.s.#.s N ~.qXOX@X@XOX@X@X@X@X@X$X@X+X+X=X+X+X+X+X&XOXOX@X+X@XOX=X@XOX@X&XnXP.y v -.F.T.~.:.o D             ",
"            6 - <.1Xu.p a k.cXXX&X@XOXOX@X@XoX+X+X@X@XOX@X=X+X=X+X+X@X$X$X@X+X=X+X=X+XOX@X@XOX&X`.NX+.; M K.'.%.o F             ",
"            j f v.^.j., > pXbXqX&X@X@X@X@X@X&X;X+X@XOXOX@X@XOX+X+X@X@X$X&X@X@X+X+X=XOX@X&X@X@X@X5XNXg.* a uX>X&.3 R             ",
"          2 4.k.I.dXz.: 3 uX0XoX@XOX@XOX$X&X5X+X+X@XOX&XOXOX9X5X&X&X$X$X$XOX=XoX+X&X&X5XOXOX@X+XoX6Xa.* p iX!.M.k.5.@ Q         ",
"          @ h.kXU.j.7.k z N.9X+X=X+X@X&XnX{.V.%X@X@X@X&X@X%XR.R.A.V.5X5X$XOX=X@X4XV.{.nX&X@X+X=X+XqXt.a H ;.<.Q.lX6.. e         ",
"        7 1 u.W.u.u i z.lXeX+X@X+X+X+X5X{.` { ,X$XOX@XoX5X'.Z B B [ 2XwX#X&XOX&XA.Z } [.$X+X+X+X@X&X2XlX+.> M yXkXX.X Y         ",
"        2 - H.jXtX: < hXMX-X$X@X@X@X;X7XR._ ] c.&X@X;X4XW.u.z 4 4 V F.S.5X9XOX5X&.Z } 8X%X+X=X@XoX;X%XMXh.* s iX^.$.o D         ",
"        j u G.^.=.g M Q.-X+X&X$X@X@X+X#XnXjXT. .c.A.A.Z.| C J H H J P  .Z.W.A.x.1.dX1X5X+X+XOX@X&XOXOX0Xt.a M 8.~.&., U CX      ",
"      2 l.J.R.x.x a.>X.X*X+XOX$X@X@X+X+X5X7X7XT.J c z P T.W.}.}.|.|.2Xx.B z c P }.6X5X$X@X+X@X@X@XOX@X=X.X3X-.M T.Z.U.4.@ Q     ",
"      O j.W.W.&.z Y..X+X@X@X@X@XOX@X+X@X&X$X5XE.c j V [ <X5X%X-X;X+XqXR.L V q K >X&X&X@X@X@X@XOX&XOX@X=X+XeX-.z M.A.'.-.. e     ",
"    % O H.`.W.&.k uXwX@X@XOX@X@X@X@X@X+X+X+X;XW.z v uX'.7XOX@X+X+X@X$X8X1Xa.g J 2X=X+X@X+X@X@X$X&X@X@X@X@X0X-.k I.S.'.=.. r     ",
"    8 - H.{.W.r.k iX7X@XOXOX@X@X@X@X@X@X+X+X4Xx.L [ vX5X$XOX@X@X@X@X$XOXqXW.C [ Z.%X+X+X+X@X&X&X&X@X@X@X@XmX,.k I.A.R.*.X E     ",
"    $ O H.(._.e.d iXnX$XOX@X@X+X+X+X@X@X@X&XR. .A.XX&XOX@X@XOXOX@XOX@X@X@X&X/.c. .`.+X+X@X@X+X&X+X@X@X@XOXmX,.k I.S.'.=.X r     ",
"    $ O p./.S.e.l yXnX$X@X@X@X+X+X+XOXOX@X5XP._ (.;X@X@X@X@XOXOX@XOX@X+X@X@X9Xb._ jX&X@X@X@XoX*X+X@X@X@XOXnX,.l M.A.'.-.X r     ",
"    $ - i.A.C.x.N aX6X@X@X@X@X+X@X@X$XOX@X;XE.] /.+X+X=X+X$X&XOXOX&X&X+X*X+X5Xb.{ vX%X@XOX@X+X=X@X@X+X+XOXnX>.l m.C.A.#.. e     ",
"    $ O p.S.C.x.N aX6X+X@XOX@X+X@X@X$X$X@X+XT.[ /.;X*X+X;X&X$X&X@X@X%X&X*X+XwXn.{ }.%X@XOX@X@X@X@X@X+X+X+XnX>.l m.C.S.#.. r     ",
"    $ @ p.S.C.&.N yXqX+XOX@X=X+X@X@X&X$X@X+XT.[ /.;X*X.X=X&X$X@X@XOX&X&X+X*X5Xn.{ }.%X@XOX@X@X+X+X@X+X+X@XmX>.l N.D.S.#.. G     ",
"    $ + p./.C.x.l rX6X&X@X@X@X+X+X@X@XOX@X;XT.] /.+X+X+X+X@X@XOXOX@X&X+X*X+X4Xb.] cX5XOXOX@X+X@X+X@X+X+X+X6X>.M Z.C.>X$.. r     ",
"    % O u.V.C.e.s aXnX@X@X@X@X+X*X+X@XOX@X5XP._ ,X;X+X+X@X@X@X@X@XOX@X@X@X@X9Xb._ cX5XOX@X@X+X+X&X@X@X@X@XmX,.l Z.C.V.%.X e     ",
"    % 1 p.`._.&.k fX7X$X@X@X@X+X@X+X@X@X@X%X)...x.V.&X@X&X@XOX@X@XOX&X&XoXoXb.x...1X&X@X@X@XOX&X&X@X@X@X@XmX,.k M.C./.$.X e     ",
"    8 1 p.).).q.k pX8X$X@X@XOX@X@XOX@X@X+X+X4Xc.B L 1X9X$XOX@X@XOX&X$XOXqXA.B L S.;X+X+X@XOX$X&X@X@X@X@X@XbX;.x T.A.`.=.X E     ",
"    $ o j.R.R.v.g pXqX@X@X@X@X@X@XOX@X@X@X+X9X~.v v p.Z.5X$X&X@XoX&X&X8XR.<.h J bX=X+X=X@XOX&X&XOX@X@X@X@XMX;.k I.A.].*.. e     ",
"    % + h.}._.q.k pX:X+XOX@X@XOX@X@X+X+X&X$X5XT.c q c L '.5X%X+X-X%X7Xn.B z q K |.&X@X@X@X@X@XOXOX@X@X+X+XwX-.k M.S.'.:.X r     ",
"    Q n 4.%.).x.V y.m..X=X@X$X&XOX@X+X+X5X7X6Xv.P K V L v.c.Z.I.I.c.Z.x.L V K I Z.7X5XoX+X@X@X@X@XOX@X=X Xm.X.C Z.c.>.3.w (     ",
"        0 3 F.jX,.u a U.-XoX9X$X&XOX+X&X6Xn.x.X.W.2XXXS. .L v c c v P  .W.3X2XB.1.x.S.5XoX@XOX@X&X&X&X6Xt.> l tX'.%.= S         ",
"        6 - p.~.p.: < gXMX+X$X$X@X@X&X5X).Z C B.&X@X@X+X>XJ.v f f J !.3X;X@XOX&Xv.B _ ,X%X+X@X@X&X5X#XNXh.* s fX^.$.o D         ",
"        $ 1 a.Z.F.l g :.Y.2X%X@X+X+X+X5X{.'  ..X@X@X@XoXwX'.] L C | 2X9XoX@XOX;XC.{ } [.&X+X+X+X+XoXvXiXO.p C v.E.o.X Q         ",
"        % + k.kXI.aXl.3 p M.qX+X=X+X;X&X8X[.%X+XOX@X@X@X&X%X1XvXvX,X&X&X$X$X@XOX.X#X8X7X&X=X+X=X+XqXr.= g z.uX!.lXg.. r         ",
"        Q t 2.;.Q.Q.z.> 3 uX4X+X@XOX$XOX@X&X%X+X=X@XOX@XOXOX9X%X&X;XOX$X$X$X=X@X&X%X&X&XoXOX+X@X+X,Xa.* a hXK.U.:.2.t ^         ",
"            0 3 F.dXj.: ; xXMX&X&X@X@X@X@X+XoX;X+X+XOXOX@X@X@XOXOX@X@X$X$XOX+X=X@XoX+X@X@X@X@X&X5XNXh.* a fXdX%.= U             ",
"            6 - u.>Xr.x z ;.G.8XoXOX@XOXOX=X@XoX+X@X&X&X@X@X+X=X=X+X@X$X$X&X@X+XoX=X=X@X@X@X+X5X].aX@.4 V U.W.$.o F             ",
"            & o j.W.T.U.y., y jXmX&XOXOX@X=XoX@X@X$XOX&XoX+X=X+X=XoX+X&XOXOX9XOX=X+X+X@X@XOX5XMXG.: z k.I.T.<X:.o D             ",
"            ! S +.U.B.S.G.l l ,.G.,X&X@XOX@X+X@XOX&X@X@X+X+X@XOX@X@XoX&X$X@X&XOX@X@X@XOX@X&X1XL.*.a C !.A.A.J.3.n               ",
"                h g.vXB.R.sXj.: i NXbX4XqX+X=X@X&XOX@XOX+X+X=X@X@X@X@XOX$X$XOX@X+X&X#XmX4XbXU.: a iXI.Z.A.cXO.c                 ",
"                T 2.h.I.m.W.F.M v +.z.j.F.>X+X+X@X$X&X;X=X+X+X+XOX+X@X@X&X@X@XOX+X5XvX<.i.z.@.h C T.E.!.H.7.T w.                ",
"                  2 - h.lXW.Z.Q.o.; * * u zXMX0X6XmXoX@X@X@X+X=X=X@XOX@XOXoX9X4X0XNXrX: * * q i.T.A.T.zX4.* n                   ",
"                  ~ m 5.y.Y.B./.v.x a f v 6.y.i.,.F.#X+XOX@X+X+X+X+XoX@X+XXXr.p.i.h.O.z g p C Q.A.W.J.6.w.n                     ",
"                      1 ; j.}.A.R.F.pXgX6.> * = = a kX0X7XqXqX0XwX0XqX0X0XI., = = = g g.pXuXG.P.R.kX7.o n                       ",
"                      ~ S T #.U.jX~.kX!.u.M k u * ; 6.y.-.>.>.8.,.;.,.-.y.@.* * a i B U.!.W.R.vXrXO.0.n                         ",
"                          T H 4.*.=.&.M.E.I.iX8.z g g h z x s l l l k z h h g V hXiXI.!.v.%.>.*.O.b /                           ",
"                              2 o o , k.lX}.!.dXU.I.U.Y.N.m.Z.P.P.T.I.I.N.Y.I.Q.dX!.|.lX7.= o o n                               ",
"                              ! r F U 2.6.X.#.%.m.C.A.D.D.C.V.V.(.V.D.S.A.B.S.M.$.:.o.g.2.U D r )                               ",
"                                      1 . X X > uXW.'._.S.XX_._.`.`././.`.).cX,.* X . . A                                       ",
"                                      Y r W W S 3.#.$.$.%.%.$.=.=.=.$.%.$.=.7.2.S W Q r ^                                       ",
"                                                O X X X . . . X X . . X X X X w ZX                                              ",
"                                                Q G r e G e e E E e G G e e r ^                                                 ",
"                                                                                                                                ",
"                                                                                                                                "
};
