/* XPM */
static char *_f1cb5b3dd5b454aff4214041fe67552RH71dKbonauUw3zQ[] = {
/* columns rows colors chars-per-pixel */
"64 64 180 2 ",
"   c None",
".  c #393027",
"X  c #3E3329",
"o  c #3E3A33",
"O  c #403125",
"+  c #463A2F",
"@  c #4E3A2A",
"#  c #513E2F",
"$  c #473F37",
"%  c #4D3E31",
"&  c #513F30",
"*  c #4A4036",
"=  c #47413A",
"-  c #4C443B",
";  c #544335",
":  c #594534",
">  c #5F4835",
",  c #52463A",
"<  c #584739",
"1  c #54483D",
"2  c #5B4A3C",
"3  c #624A36",
"4  c #624D3C",
"5  c #65503F",
"6  c #4E4740",
"7  c #554D44",
"8  c #5A4E42",
"9  c #554F48",
"0  c #5F5245",
"q  c #565149",
"w  c #5B544C",
"e  c #5F584F",
"r  c #5C5750",
"t  c #5E5851",
"y  c #645344",
"u  c #6A5645",
"i  c #6C5847",
"p  c #635649",
"a  c #695748",
"s  c #64594E",
"d  c #6C5B4C",
"f  c #725A45",
"g  c #785F45",
"h  c #735D4B",
"j  c #785F4A",
"k  c #645D54",
"l  c #6B5D51",
"z  c #635F59",
"x  c #705F50",
"c  c #74604F",
"v  c #7D644C",
"b  c #6D6155",
"n  c #65625B",
"m  c #6C645C",
"M  c #746354",
"N  c #796656",
"B  c #7B6857",
"V  c #756659",
"C  c #786758",
"Z  c #74695E",
"A  c #7B6A5B",
"S  c #6B6760",
"D  c #6D6963",
"F  c #746D64",
"G  c #7C6E61",
"H  c #726F69",
"J  c #7E7266",
"K  c #75726C",
"L  c #7C746C",
"P  c #7E786F",
"I  c #777670",
"U  c #7A7771",
"Y  c #7D7A75",
"T  c #7F7E79",
"R  c #896846",
"E  c #866A4E",
"W  c #896B4C",
"Q  c #816C56",
"!  c #806E5E",
"~  c #816F60",
"^  c #837364",
"/  c #887766",
"(  c #83766A",
")  c #887768",
"_  c #85796D",
"`  c #8A7A6C",
"'  c #847C73",
"]  c #8A7E73",
"[  c #827F79",
"{  c #8C8176",
"}  c #85827C",
"|  c #8C847C",
" . c #938375",
".. c #92867B",
"X. c #94897E",
"o. c #9A8B7D",
"O. c #878681",
"+. c #898681",
"@. c #8D8A84",
"#. c #8F8E89",
"$. c #948C83",
"%. c #9A8F84",
"&. c #928F89",
"*. c #979087",
"=. c #9C9186",
"-. c #95928C",
";. c #9B958D",
":. c #9F988F",
">. c #979590",
",. c #9A9791",
"<. c #9D9A94",
"1. c #9F9D98",
"2. c #A19283",
"3. c #A3968A",
"4. c #A3998E",
"5. c #A29C95",
"6. c #A99E94",
"7. c #A29F99",
"8. c #A5A29C",
"9. c #AAA49D",
"0. c #A7A6A1",
"q. c #AAA7A1",
"w. c #ACAAA4",
"e. c #AEADA9",
"r. c #B1ACA6",
"t. c #B0AEA9",
"y. c #B1AEA9",
"u. c #B1B0AB",
"i. c #B3B0AB",
"p. c #B3B3AE",
"a. c #B2B1AC",
"s. c #B4B2AD",
"d. c #B5B3AE",
"f. c #B4B4AF",
"g. c #B6B4AF",
"h. c #B4B2AD",
"j. c #BAB5AE",
"k. c #B5B4B0",
"l. c #B6B5B1",
"z. c #B7B6B1",
"x. c #B7B7B2",
"c. c #B6B6B1",
"v. c #B9B7B2",
"b. c #B8B6B1",
"n. c #B9B7B2",
"m. c #B9B8B3",
"M. c #B9B9B5",
"N. c #BAB9B4",
"B. c #BBBBB7",
"V. c #B9BAB5",
"C. c #BCBBB7",
"Z. c #BBBCB7",
"A. c #BCBCB7",
"S. c #BEBCB7",
"D. c #BBBAB5",
"F. c #BCBDB9",
"G. c #BFBFBA",
"H. c #BEBCB8",
"J. c #BEBEB9",
"K. c #C1BFBB",
"L. c #C0BFBA",
"P. c #BFC0BC",
"I. c #C0C0BB",
"U. c #C0C1BD",
"Y. c #C3C3BE",
"T. c #C6C4BF",
"R. c #C2C2BD",
"E. c #C5C5C1",
"W. c #C7C7C3",
"Q. c #C7C6C2",
"!. c #C6C6C1",
"~. c #C5C5C1",
"^. c #C9C6C2",
"/. c #C9C9C5",
"(. c #C9C9C5",
"). c #CCCCC8",
"_. c #CCCDC9",
"`. c #D1D1CD",
"'. c #DADAD6",
"]. c #E1E2DD",
/* pixels */
"                                                                                                                                ",
"                                                                                                                                ",
"                                                                                                                                ",
"                                                                                                                                ",
"                            w.p.Q.U.e.0.M.Q.C.Q.).G.U.Q.e.8.0.A.v.w.T.].].'.Q.U.z.z.M.G.U.G.0.w.Z.                              ",
"                            f.f.&.} K U } #.-.;.;.@.+.@.} +.@.@.' ' +.;.,.$.K | [ +.#.@.#.+.U -.G.                              ",
"                            G.u.D o = 9 q e m z k e w 9 7 9 9 e 9 q e 9 9 6 $ - q e q e q - 9 -.M.                              ",
"                            I.u.K q S } -.-.;.,.$.| P F K K D } | } $.' Y K H Y } } ' @.| Y H 0.Q.                              ",
"                            Q.M.Y n Y <.e.s.z.w.<.,.@.@.<.,.} $.<.<.w.8.-.&.@.,.8.<.$.0.9.8.} 0.m.                              ",
"                            /.A.} U @.0.t.0.M.f.8.9.-.-.7.9.-.;.7.8.u.t.0.8.<.w.z.w.;.w.7.>.@.p.G.                              ",
"                            z.M.+.[ 7.z.M.0.z.M.s.e.,.<.8.8.-.<.8.,.8.7.,.<.9.0.q.v.t.z.w.8.<.u.M.                              ",
"                            z.z.} Y 7.m.v.s.z.z.z.e.7.8.9.<.<.e.t.8.w.8.8.8.8.;.q.Q.Q.G.0.9.<.e.u.                              ",
"                            z.8.Y } <.e.e.0.,.0.f.u.7.9.8.-.$.f.C.e.M.w.8.<.<.;.v.Q./.v.8.<.#.0.s.                              ",
"                            M.1.K Y >.t.p.9.-.7.s.w.8.0.w.7.<.K.Q.s.s.w.t.8.7.8.K.T.A.t.>.+.Y 0.M.                              ",
"                            U.u.K Y >.w.p.8.,.8.f.u.w.8.0.8.<.G.G.f.f.w.t.w.0.0.U.T.f.8.>.@.} e.U.                              ",
"                            Q.z.H K #.7.e.s.8.8.p.u.t.8.<.8.7.C.p.e.M.z.w.w.w.<.e.s.f.8.1.<.O.w.Q.                              ",
"                            Q.G.I K @.-.9.M.e.0.t.8.7.<.,.8.w.M.0.,.t.G.s.z.w.8.r.w.A.p.0.<.O.p./.                              ",
"                            /.U.[ Y &.-.w.M.M.z.p.w.7.,.<.e.p.M.8.$.,.8.0.w.8.7.z.K.M.p.w.<.#.f./.                              ",
"                            Q.G.} H +.1.p.U.U.G.M.e.z.e.w.G.s.C.7.@.-.&.<.t.f.t.u.K.z.0.<.,.-.z.`.                              ",
"                            /.G.Y n O.0.p.U./.G.v.t.M.s.t.v.t.m.0.-.<.7.t.s.t.G.0.M.z.<.&.&.-.z.).                              ",
"                            U.z.Y S +.9.p.s.G.M.C.m.w.7.z.A.z.v.<.&.,.<.8.0.e.M.z.z.e.1.#.#.#.e.U.                              ",
"                            C.s.Y [ <.w.p.A.s.v.A.u.w.0.v.C.C.K.0.-.,.,.,.7.w.w.e.t.t.0.&.-.,.e.U.                              ",
"                            ^.M.[ } 8.p.0.m.m.M.Q.G.M.U./.Q.m.C.p.7.<.<.&.,.8.0.t.w.7.<.@.@.,.e.P.                              ",
"                            Q.C.Y K <.p.p.Y.Q.U.Q.Q.s.G.)./.r.9.7.;.,.#.+.&.,.w.t.7.,.,.@.' #.p.E.                              ",
"                            W.G.U n -.t.v.f.e.s.M.G.e.f.K.M.q.q.9.<.$.@.,.7.8.9.9.;.7.0.-.+.@.w.U.                              ",
"                            Q.G.U m &.0.8.7.8.w.t.u.w.w.w.5.7.9.q.8.7.<.<.0.8.7.9.7.9.u.,.@.[ 8.M.                              ",
"                            Q.M.U n ' -.-.;.<.8.0.s.t.0.0.8.-.,.8.8.t.0.9.8.$.&.8.7.9.w.-.} [ 0.M.                              ",
"                            W.z.K t K | ' &.,.-.7.w.e.0.e.0.} $.7.<.t.t.q.7.$.$.8.<.<.0.<.#.U w.E.                              ",
"                            M.w.D r Y $.' @.<.@.$.9.t.s.t.8.} -.7.,.0.8.v.q.-.,.9.<.7.w.<.-.I e./.                              ",
"                            p.w.K F [ @.P ' -.| | e.K.m.r.9.,.;.8.7.w.e.K.8.=.7.w.8.8.0.<.-.T p.Q.                              ",
"                            U.f.U U +.,.@.@.&.@.+.0.U.v.9.0.7.8.0.8.z.Y.^.q.r.t.v.u.w.0.<.-.} p.Q.                              ",
"                            U.z.U U -.<.-.1.<.<.-.8.t.q.w.0.;.;.5.q.G.T.^.D.C.j.v.s.s.p.1.-.+.p.Q.                              ",
"                            U.z.U K ` P } 8.0.8.8.7.=.$.;.;.| } ;.8.s.s.K.r.q.y.s.t.t.s.8.,.+.t.U.                              ",
"                            Q.M.K n W b H } -.<.w.9.$.| $.$.$.5.9.-.<.6.9...' =.t.t.0.t.5.&.} 0.M.                              ",
"                            U.z.K n g f C Q Q | 8.8.$.| %.:.$.7.y.-.{ ' X.} J } 9.t.0.9.$.[ U 8.s.                              ",
"                            G.p.U F v 8 w s p } 0.0.;.=.6.8.;.9.r.6.5.| | ..{ $.8.s.s.i.<.' K 8.e.                              ",
"                            A.p.U Y E G +.} ' ,.t.0.7.9.9.9.9.i.j.9.9.5.;.<.6.9.9.t.v.D.-._ K <.w.                              ",
"                            U.p.K m W _ 8.<.} } i.q.5.;.;.7.r.D.D.9.q.9.5.r.j.r.5.6.i.j.$.' U 1.0.                              ",
"                            G.e.D 9 R ` 8.<.' =.w.7.$.$.$.5.s.Y.v.9.q.r.i.j.j.9.;.%.9.q.$.J F -.w.                              ",
"                            v.8.n q d J $.5.<.5.q.*.} | } =.r.K.s.9.q.j.j.r.9.6.4.;.6.8.$.F m <.s.                              ",
"                            w.-.n e z J P X.%.X.$.$.' } | =.0.m.s.9.7.r.r.9.6.$.4.9.;.6.=.P m 1.8.                              ",
"                            e.,.z z F ' P J ] X.X.X.$.$.;.5.7.t.q.9.r.9.9.6.5.| ;.r.6.9.$.J m ,.w.                              ",
"                            u.<.z m ' $.] F ' | X...;.$.;.;.7.r.9.<.9.=.5.5.;.| 5.9.8.9.$.F z -.e.                              ",
"                            p.7.n m J =.$.| | _ ..o.3.%.{ X.=.9.w.<.;.%.;.;.;.$.=.;.$.| ( l k ;.t.                              ",
"                            s.7.z m F ] ( _ ' ) ` %.%.^ Z ' ' ;.5.| | %.;.;.6.$.;.5.{ | J b z ;.0.                              ",
"                            q.&.t m P { | ' ] ` ` 3.%.^ _ ..' *.5.} | $.$.$.$.| ;.;.] X.{ J b | 7.                              ",
"                            <.| t z J ..$.] _ )  .=.%.X...] ( X.%.| ..%.%.%.$.%.%.%.X.=._ A m ' ,.                              ",
"                            :.$.z e m ..$.%.` ` 2.4.o.X.X.) M ^ { _ ( ] ] ' { ] _ ] { o.) A m } 7.                              ",
"                            =.{ e q k ' | ..o.2.o.3.6.=... .G ) ..{ ) G ] | ( G J _ ^ ] ) ^ Z $.9.                              ",
"                            4.%.z 7 k J ' (  . .` ` o.` A ` V ^ ` {  .^ ....^ M C G A ` ^ A Z $.9.                              ",
"                            %.%.m 9 k Z J ^ {  .^ ^  .^ M ` A V V ` .. ...` V d d l x ^ A A Z X.6.                              ",
"                            { ..b 7 p s b V G  .` `  .^ d N a y d ` o. . .` C d a i C ^ ! A Z $.6.                              ",
"                            4.X.k 7 8 p d M V ~ ! C ^ A i u 4 i y ^ 2.%.o. .^ M d M ) ^ y d m ..*.                              ",
"                            4.%.s 1 1 y b A A ~ ^ ^ C N h u 4 u u ^ o.3.2.` A d d A ^ d < y l ] {                               ",
"                            3.X.w - 8 l Z M d V ^  .M d N y 2 u h N ` o.` ^ C i M N ^ N 2 2 p ( {                               ",
"                            =.{ 7 * 7 b M y d M M A y 2 h u u h f h /  .` ^ N A C d M B y y 0 J {                               ",
"                            %.( 7 - 1 y 0 8 d d d d 2 ; y h f f f c ^ ` ^ / ! A M y y u y y p ( _                               ",
"                            ' Z 1 , , , ; ; < y y 2 ; ; 4 2 4 j v M A A ! ! C M C a y 5 4 4 1 ^ {                               ",
"                            ' Z * , 2 < < ; < 2 < < ; 2 4 : > g h d M d u M C M c y 4 4 : # % V `                               ",
"                            G b $ . + ; < < < ; % ; ; % & @ @ 3 4 < 2 ; ; u 4 2 < : ; 3 @ O X l ^                               ",
"                              p                                                               s G                               ",
"                                                                                                                                ",
"                                                                                                                                ",
"                                                                                                                                "
};
