/* XPM */
static char *ccc7738584b44ed48a415a0a714eb3b1U4VFhWfq28E4UCwb[] = {
/* columns rows colors chars-per-pixel */
"64 64 239 2 ",
"   c None",
".  c #250200",
"X  c #2C0402",
"o  c #3D0E00",
"O  c #320803",
"+  c #3B1307",
"@  c #3A1910",
"#  c #421200",
"$  c #4A1401",
"%  c #471908",
"&  c #521B04",
"*  c #5A1C04",
"=  c #4B1B15",
"-  c #521C16",
";  c #420F00",
":  c #681E09",
">  c #5B240E",
",  c #492416",
"<  c #5D2514",
"1  c #592A17",
"2  c #542A14",
"3  c #642305",
"4  c #63230C",
"5  c #6C2B0B",
"6  c #6B2406",
"7  c #732D0B",
"8  c #7A2D0C",
"9  c #752806",
"0  c #7E320C",
"q  c #642B16",
"w  c #6B2D11",
"e  c #642C1A",
"r  c #692714",
"t  c #742C15",
"y  c #7A2E13",
"u  c #722E1A",
"i  c #722712",
"p  c #6A331A",
"a  c #723114",
"s  c #7B3114",
"d  c #71321B",
"f  c #7D3C1D",
"g  c #78371B",
"h  c #67310F",
"j  c #582B25",
"k  c #593427",
"l  c #543431",
"z  c #632E21",
"x  c #683928",
"c  c #763A23",
"v  c #663C31",
"b  c #723D30",
"n  c #5D403A",
"m  c #7B442A",
"M  c #6B4538",
"N  c #774938",
"B  c #764930",
"V  c #603C46",
"C  c #764C45",
"Z  c #795446",
"A  c #725150",
"S  c #7D615D",
"D  c #7B5967",
"F  c #83330C",
"G  c #8C3A0D",
"H  c #89360A",
"J  c #923E0B",
"K  c #8C3C14",
"L  c #853E1C",
"P  c #8A3D1D",
"I  c #863615",
"U  c #923E13",
"Y  c #923C1A",
"T  c #8A2D04",
"R  c #863E21",
"E  c #98440E",
"W  c #8C4115",
"Q  c #84421C",
"!  c #8C431C",
"~  c #894918",
"^  c #944215",
"/  c #9B4515",
"(  c #9D4B15",
")  c #93431B",
"_  c #9B4619",
"`  c #93491B",
"'  c #9D4A1B",
"]  c #954C14",
"[  c #9E531C",
"{  c #A3450F",
"}  c #A24C15",
"|  c #AB4E16",
" . c #A1461C",
".. c #A34C1B",
"X. c #AA4E1A",
"o. c #A24614",
"O. c #AC5415",
"+. c #A5511B",
"@. c #AB541B",
"#. c #AD5A1C",
"$. c #A85516",
"%. c #B25616",
"&. c #B2551D",
"*. c #B35B1D",
"=. c #BA5E1C",
"-. c #B85B15",
";. c #B5621D",
":. c #BB631D",
">. c #AE601E",
",. c #854123",
"<. c #8B4221",
"1. c #8A4826",
"2. c #924522",
"3. c #9A4B22",
"4. c #964B27",
"5. c #9C562A",
"6. c #9C5B2C",
"7. c #945329",
"8. c #8D593E",
"9. c #9C5532",
"0. c #955B38",
"q. c #8B4D36",
"w. c #A24B23",
"e. c #A74A22",
"r. c #A45423",
"t. c #AC5621",
"y. c #AC5B24",
"u. c #A65928",
"i. c #B35622",
"p. c #B55B23",
"a. c #BA5C23",
"s. c #B25C2B",
"d. c #A15D30",
"f. c #9A613D",
"g. c #AF6228",
"h. c #B56223",
"j. c #BB6422",
"k. c #BD6A24",
"l. c #B3642B",
"z. c #BC642A",
"x. c #B76926",
"c. c #A56638",
"v. c #B56935",
"b. c #BD7238",
"n. c #BF702D",
"m. c #C4681F",
"M. c #C5701D",
"N. c #C26622",
"B. c #C36B23",
"V. c #CA6C23",
"C. c #C46D2A",
"Z. c #C56A2A",
"A. c #C57224",
"S. c #CA7326",
"D. c #C5722C",
"F. c #CC752B",
"G. c #CC782C",
"H. c #CB7928",
"J. c #D27C2D",
"K. c #D17728",
"L. c #CB7C33",
"P. c #C57D3A",
"I. c #CB7E3B",
"U. c #C67736",
"Y. c #D17E32",
"T. c #D07637",
"R. c #865945",
"E. c #985E45",
"W. c #835E52",
"Q. c #834A41",
"!. c #9A6543",
"~. c #99684A",
"^. c #8B695D",
"/. c #946656",
"(. c #A66D46",
"). c #B56D43",
"_. c #B2744B",
"`. c #B77944",
"'. c #A97655",
"]. c #B67A53",
"[. c #B87E58",
"{. c #A96F4E",
"}. c #8E7168",
"|. c #987669",
" X c #977C77",
".X c #916B72",
"XX c #AD7C74",
"oX c #CA7E43",
"OX c #C16F40",
"+X c #D8822D",
"@X c #CB833C",
"#X c #CB8037",
"$X c #D38335",
"%X c #D5853B",
"&X c #BE854B",
"*X c #B98757",
"=X c #9E8079",
"-X c #A6816D",
";X c #B88766",
":X c #A68579",
">X c #BB9578",
",X c #BD8F73",
"<X c #C38345",
"1X c #C98344",
"2X c #C7874B",
"3X c #D38442",
"4X c #C58A5A",
"5X c #CE8B57",
"6X c #C48B64",
"7X c #C98963",
"8X c #C99466",
"9X c #D59669",
"0X c #C59A77",
"qX c #D9A476",
"wX c #988689",
"eX c #B79686",
"rX c #AD9089",
"tX c #B9A19C",
"yX c #BFA6A2",
"uX c #C59C83",
"iX c #CBA686",
"pX c #D1A685",
"aX c #D6AC89",
"sX c #DDB68D",
"dX c #C6AB99",
"fX c #D9AC94",
"gX c #D9B496",
"hX c #E3B890",
"jX c #D9B8A3",
"kX c #CBB5AE",
"lX c #E9C9A7",
"zX c #F5D8BF",
"xX c #ECCFB4",
"cX c #FFE0BE",
"vX c #DECBC5",
"bX c #F6D9C4",
"nX c #E9D5D0",
"mX c #FFE4CF",
"MX c #FFE8D5",
/* pixels */
"XXC Q.eX                                                                                                                        ",
"= o < q.8.-X                                                                                                                wXwX",
"< $ 6 2.! ! 1.8.                                                                   X}.^.W.Z C C M v x e < < - = % % % % % % . X ",
"B & : K _ _ W ` 2.0.'.              :X-X|.^.W.R.R.Z M M b x v v z e e e e q < < q q < < q q e e r r i i i u u d a a u u p p O O ",
"A = 4 P / E J ( } X.r.5.0.;X  8.p h 5 5 w w a 7 7 7 a a s y t t s s s s s y y s y y y y y s y y I y y y y y u s 8 0 I I L g O = ",
".X- : I ^ / E ( { { @.z.g.[ v.r.` H H ^ ! Q ! ) K ` 4.<.! 2.1.<.<.! <.<.P L P ! P <.P P P <.<.<.R R R ,.,.,.m f W H G U K a X j ",
"XX- : P _ / ^ ( ..X.@.@.*.#.z.z.U.h.@.} ! 1.7.7.7.6.0.0.0.f.!.!.!.!.!.!.!.~.(.(.{.{.{.'.'.'.;X;X;X;X;X,X>XeXuX0X`.] U U ! w . l ",
"  < : K ^ ^ ^ ' _ ' t.p.p.#.j.N.C.C.T.oX7X                                                                      9X[ G K ) a X V ",
"  r 6 F / _ U 3.3.3.r.y.l.#.h.z.D.D.D.2XhX                                                                      8X( / U K d . A ",
"  w 6 F / _ U 3.3.3.w.y.g.#.h.x.D.D.D.2XaX                                                                      8X` ^ U K u . D ",
"  x 3 8 ^ _ ^ _ _ _ } @.;.O.:.:.A.A.A.1XaX                                                                      6X^ ^ U Y w . .X",
"  M 4 8 ^ _ _ } } } } O.;.%.:.m.M.M.A.1XiX                                                                      6X^ ^ ^ ! 5 .  X",
"  N 4 8 U _ ( } ..} } O.*.%.a.m.A.A.A.<XiX                                                                      6X^ K ^ W 3 . wX",
"  R.r 8 ^ _ / ( ..} } @.h.%.a.N.B.A.A.1X>X                                                                      6X) W ) K 3 . rX",
"  ^.q 9 Y  ./  .X...X.#.h.#.h.j.B.V.S.1X0X                                                                      6X) ) ) K 3 X tX",
"  |.p 6 U / /  .e.X.X.#.h.#.h.h.B.V.V.1X0X                                                                      4X^ ^ ^ I * X yX",
"    q 9 G / ' ..X.} +.#.p.p.*.:.N.F.A.1X8X                                                                      4XU / ^ L & O kX",
"    p 9 K ^ ^ _ +.} +.#.p.p.h.:.B.F.D.@X6X                                                                      ].G / ^ Q & @   ",
"    c 9 G ^ ^ ' +.+.@.*.a.a.j.B.N.F.F.@X6X                                                                      [.E / ^ L & @   ",
"    c 9 H / ^ ' ..+.@.p.a.a.j.B.N.F.G.P.*X                                                                      ]./ _ ^ L $ ,   ",
"    c 8 G _ ^ _ } } @.*.a.a.j.j.B.F.G.P.*X                                                                      ]._ ( ^ Q & j   ",
"    m s H _ / _ } } @.&.a.a.j.:.B.B.G.P.*X                                                                      _.' } ^ Q $ l   ",
"    q.I F / _ ' } } @.@.p.a.j.:.B.B.F.P.*X                                                                    MX_.' } U L $ l   ",
"    8.P F _ ' _ } X.@.@.i.a.j.:.F.B.F.P.*X                                                                    mX_.' _ U ,.$ n   ",
"    ~.L F _ _  .} @.@.@.&.a.k.:.D.F.S.L.&XlX                                                                  bX_.+...K Q # A   ",
"    '.L F ' '  .} @.#.*.&.*.j.j.D.F.S.L.&XlX                                                                  mX_.' } U ,.o A   ",
"    XX,.F _ ' _ } @.#.p.p.p.j.k.D.G.S.L.&XlX                                                                  mX(.( } ^ ,.o S   ",
"    ,X<.F ^ ' ' ..@.+.#.&.a.j.:.C.G.S.L.&XhX                                                                  bX(.( _ ^ ,.# }.  ",
"    uX1.F ^ ' ' } @.@.@.&.*.j.*.C.F.S.L.&XsX                                                                  bX(.( / ^ ,.o  X  ",
"    fX7.I K _ _ / @.t.#.&.*.;.;.C.F.F.L.2XhX                                                                  bXc.( / ^ f o wX  ",
"      0.K G ' r.+.+.+.#.p.*.j.j.C.F.S.L.<XsX                                                                    c.( _ ^ f o rX  ",
"      E.<.K 6.).v.u.' r.p.p.h.j.k.G.F.L.<XpX                                                                    c..._ ^ f # tX  ",
"      E.,.f (.0XaX;X].).u.s.C.m.B.G.G.I.oXqX                                                                    c.( } ) f o kX  ",
"      /.1.Q ~.,X;X'.].7X9XOX&.D.B.F.F.L.P.qX                                                                    c.(  .) c o kX  ",
"      /.R 0 7.f.7.9.Q W ).5Xn.k.B.G.G.L.P.9X                                                                    c.} } ` f % kX  ",
"      /.<.F 3.3.3.u.r.W ^ u.l.x.A.G.J.L.P.8X                                                                    c.} ' ` g = vX  ",
"      |.R H X.} X...@.t.y.l.x.x.A.F.F.G.I.8X                                                                    6.( ' 3.g , vX  ",
"      -XL T o.o.o.@.&.+.t.l.>.;.k.F.G.L.3X8X                                                                    6.( ' ` d 2 nX  ",
"      eXL H _ X.| | O.#.z.z.*.j.k.F.Y.Y.3X4X                                                                    6.../ ) p 1     ",
"      eXR F ^ } ..| #.O.*.z.j.%.j.D.J.L.%X4X                                                                    6..._ 2.d k     ",
"        m F _ ' X.@.#.%.a.a.=.-.:.F.F.Y.#X5X                                                                    6.+./ ` w v     ",
"        m 8 ) w...+.@.#.p.a.:.;.B.G.F.Y.$X4X                                                                    5.+./ 4.p M     ",
"        m 8 Y w. .X.@.@.&.*.=.;.B.F.F.Y.$X2X                                                                    6.../ 2.q Z     ",
"        B y Y w. .X.@.#.&.&.*.;.C.F.S.G.$X2XzX                                                                  6..._ ! 4 W.    ",
"        B 7 K e. ...@.#.i.&.*.;.k.F.F.F.$X5XzX                                                                  6.( ' 2.> ^.    ",
"        N 7 I X.o.} $.*.p.i.p.j.j.D.K.S.$X2XxX                                                                  6./ ' ! > |.    ",
"        R.7 F _ } } $.*.p.i.a.z.j.C.F.H.$X<XlX                                                                  6./ _ P > :X    ",
"        ~.5 F } } } $.*.p.i.p.N.:.B.S.K.$X2XlX                                                                  5./ } <.> :X    ",
"        |.4 0 / } | &.&.p.@.j.j.%.B.S.J.J.2XlX                                                                  9.'  .<.> eX    ",
"          4 8 ' } | &.i.g.+.h.*.=.B.S.J.J.2XjX                                                                gX9.w.' <.1 dX    ",
"          < 5 3.....@.p.l.y.h.p.j.D.F.Y.$X2XjX                                                                fX5.' ^ <.1 dX    ",
"          q 5 ` ....@.p.l.y.h.j.h.D.L.$X%X2XgX                                                                gX7.( ^ ~ 1 kX    ",
"          z 3 ) X.| &.a.*.*.:.V.j.n.G.$X$X<XgX                                                                aX~ ] ] ~ e       ",
"          j * ` X.| &.=.%.=.-.V.k.k.D.G.$X1XiX                                                                pX~ ] ] ~ p       ",
"          k * !  .X.&.*.%.:.-.m.B.V.A.H.+X@XpX                                                                pX~ ( ( W x       ",
"          v * s ' ..i.*.@.j.:.N.m.S.K.J.+X#XpX                                                                aX` ( ..W m       ",
"          C & g 3...r.r.y.l.h.C.m.M.K.H.+X@X0X                                                                pX5..._ ! B       ",
"          Z $ s 3.+.y.t.y.l.l.n.V.V.H.$X%X1X0X                                                                iX2.w.w.<.N       ",
"          W.& 8 ' | *.%.%.j.j.C.D.D.U.@X@X`.0X                                                                eX1.4.4.R Z       ",
"          }.& 9 i.O.O.O.%.N.C.k.b.b.`.`.&X*XdX                                                                dXR.E.8.Q.}.      ",
"          =X$ 9 X.| %.*.*.p.z.v.).'.;XiXlXcX                                                                        zXxX        ",
"            ; 3 w.r.r.u.5.d._.;XfX                                                                                              ",
"            + & q.9.0.'.                                                                                                        ",
"            + $ E.                                                                                                              "
};
