/* XPM */
static char *_d5e9acb0f77480c8e999e27d583f354tTtlVHynf0exzoMM[] = {
/* columns rows colors chars-per-pixel */
"64 76 167 2 ",
"   c #6F655C",
".  c #80766C",
"X  c #857C73",
"o  c #897E78",
"O  c #958C83",
"+  c #948F8B",
"@  c #9F958B",
"#  c #9D9894",
"$  c #A0968C",
"%  c #A49B92",
"&  c #AEA59C",
"*  c #B0A59F",
"=  c #A5A5A3",
"-  c #AAA6A6",
";  c #ABA7A8",
":  c #ADACAC",
">  c #B3AAA5",
",  c #BAAFA6",
"<  c #B0A7A8",
"1  c #B4ADAC",
"2  c #BAAFA9",
"3  c #B8B0A5",
"4  c #B5B1AD",
"5  c #BAB3AD",
"6  c #B2AFB0",
"7  c #B3B3B3",
"8  c #BAB5B4",
"9  c #BCB9B6",
"0  c #BEBBB9",
"q  c #C2B6AA",
"w  c #C3BBB5",
"e  c #C8BDB7",
"r  c #C2BDBC",
"t  c #C8BEBD",
"y  c #C5C1B7",
"u  c #C6C1BE",
"i  c #CBC3BD",
"p  c #D2C5BD",
"a  c #C4BEC0",
"s  c #C6C3C3",
"d  c #CBC5C4",
"f  c #CDC9C6",
"g  c #CBC7C8",
"h  c #CDCACA",
"j  c #D1C7C4",
"k  c #D2CAC6",
"l  c #D9CEC6",
"z  c #D0C7C8",
"x  c #D2CDCB",
"c  c #D3D0C7",
"v  c #D5D1CD",
"b  c #DAD3CD",
"n  c #D3CFD0",
"m  c #D8CFD0",
"M  c #D6D2D1",
"N  c #DAD5D3",
"B  c #DCD9D6",
"V  c #DBD7D8",
"C  c #DDDBDA",
"Z  c #E2D6CD",
"A  c #E2D8CE",
"S  c #E0D6D4",
"D  c #E3DBD3",
"F  c #E9DDD1",
"G  c #E2DCDA",
"H  c #E0E0D4",
"J  c #EDE2D6",
"K  c #E3E2DD",
"L  c #ECE5DD",
"P  c #F0E6DB",
"I  c #F5EADE",
"U  c #E1DFE0",
"Y  c #E5E6E0",
"T  c #E7E3E4",
"R  c #E6E4E2",
"E  c #EAE6E7",
"W  c #E9E5E6",
"Q  c #E8E5E2",
"!  c #ECE9E5",
"~  c #EBE7E8",
"^  c #E9E7E8",
"/  c #EBEAE8",
"(  c #ECE8E9",
")  c #ECEBE9",
"_  c #EEEAE9",
"`  c #EDE9EA",
"'  c #EEEDEB",
"]  c #EFEBEC",
"[  c #EDECEB",
"{  c #F6EEE3",
"}  c #F8EEE4",
"|  c #F2EEEB",
" . c #F1EDEC",
".. c #F0ECED",
"X. c #F0EFED",
"o. c #F3EFED",
"O. c #F1EDEE",
"+. c #F2EEEF",
"@. c #F2EEED",
"#. c #F2F1EF",
"$. c #F6F2EF",
"%. c #F5F1EE",
"&. c #F5F4EF",
"*. c #F3F2EE",
"=. c #FAF4EB",
"-. c #FFFAEF",
";. c #F3EFF0",
":. c #F1EFF0",
">. c #F2F2F0",
",. c #F3F3F1",
"<. c #F4F0F1",
"1. c #F6F2F1",
"2. c #F7F3F0",
"3. c #F5F1F2",
"4. c #F6F2F3",
"5. c #F7F3F2",
"6. c #F4F3F1",
"7. c #F6F7F1",
"8. c #F5F5F3",
"9. c #F7F3F4",
"0. c #F7F6F4",
"q. c #F4F3F2",
"w. c #F9F5F2",
"e. c #FAF6F3",
"r. c #F8F4F1",
"t. c #F8F4F5",
"y. c #F8F7F5",
"u. c #F9F5F6",
"i. c #FAF6F7",
"p. c #FAF6F3",
"a. c #F7F8F2",
"s. c #F7F8F2",
"d. c #FAF9F7",
"f. c #F9F9F5",
"g. c #FBFAF5",
"h. c #FBF7F8",
"j. c #FBF7F8",
"k. c #FBFAF8",
"l. c #FCF8F9",
"z. c #FCFBF9",
"x. c #FDF9FA",
"c. c #FEFAFB",
"v. c #FAFCF9",
"b. c #FDFCF8",
"n. c #FEFDF9",
"m. c #FCFCFA",
"M. c #FDFDFB",
"N. c #FDFCFA",
"B. c #FEFDFB",
"V. c #FFFEFB",
"C. c #FCFEFB",
"Z. c #FDFBFC",
"A. c #FFFBFC",
"S. c gray99",
"D. c #FDFDFD",
"F. c #FFFCFD",
"G. c #FDFFFC",
"H. c #FEFEFC",
"J. c #FFFEFC",
"K. c #FFFEFD",
"L. c #FEFFFD",
"P. c #FFFFFD",
"I. c #FFFDFE",
"U. c #FEFEFE",
"Y. c #FFFEFF",
"T. c white",
"R. c #FFFFFE",
/* pixels */
"t.~ E t.Y.Y.A.Y.Y.Y.Y.A.Y.Y.c.Y.Y.Y.Y.Y.Y.Y.Y.Y.Y.Y.Y.Y.Y.Y.Y.Y.Y.Y.Y.Y.Y.Y.Y.Y.Y.Y.Y.Y.Y.Y.Y.Y.Y.Y.Y.Y.Y.A.c.Y.Y.Y.Y.A.1.N N 1.",
"] N s g N T 9.Y.h.Y.Y.Y.Y.Y.t.Y.Y.Y.Y.Y.Y.Y.Y.Y.Y.Y.Y.Y.Y.Y.Y.Y.Y.Y.Y.Y.Y.Y.Y.Y.Y.Y.Y.Y.Y.Y.Y.Y.A.Y.Y.Y.Y.Y.c.A.t.+.C x g s V A.",
"h.G s s s s h N E t.Y.Y.Y.Y.A.Y.Y.Y.Y.Y.Y.Y.Y.Y.Y.Y.Y.Y.Y.Y.Y.Y.Y.Y.Y.Y.Y.Y.Y.Y.Y.Y.Y.Y.Y.Y.Y.Y.Y.A.c.Y.Y.Y.9._ C N s r s s C t.",
"+.C h x M g s s r h M n g s 9 6 1 : : 7 7 7 7 7 7 7 7 7 7 7 7 7 7 7 7 7 7 7 7 7 7 : : : : : : : 6 6 9 s h M x s s g h h h x G +.",
";.C s g x x x n g x n h h M x s s s s s g g g g h h h h h h h h g g g g g g g g s s s s s s s s s s h x g M N h h h x g s g T t.",
"c.G g s g g g h h g g g N 1.Y.Y.Y.Y.Y.Y.Y.Y.Y.Y.Y.Y.Y.Y.Y.Y.Y.Y.Y.Y.Y.Y.Y.Y.Y.Y.Y.Y.Y.Y.Y.Y.Y.Y.Y.c.Y.+.M x N g M h x x a s T c.",
"+.N s g x x g s x g g s g _ Y.B.A.Y.S.Y.Y.Y.Y.Y.Y.Y.Y.Y.Y.Y.Y.Y.S.S.Y.Y.Y.Y.Y.Y.Y.Y.Y.Y.Y.Y.Y.Y.Y.Y.Y.+.h g N x g a g N g g T h.",
"1.C s g g s 0 9 s s x g g _ Y.c.Y.Y.Y.Y.Y.Y.Y.Y.Y.Y.Y.Y.Y.Y.Y.Y.Y.Y.Y.Y.Y.Y.Y.Y.Y.Y.Y.Y.Y.Y.Y.Y.Y.Y.Y.+.s s M g s 7 r n g h T t.",
"1.G g s x M 1 r g x r 4 g +.Y.Y.Y.Y.Y.Y.Y.Y.Y.Y.Y.Y.Y.Y.Y.Y.Y.Y.Y.Y.Y.Y.Y.Y.Y.Y.Y.Y.Y.Y.Y.Y.Y.Y.Y.Y.Y.;.s ; M n g - h n g x E t.",
"1.G x g x M 1 r g x r 4 s +.Y.Y.Y.Y.Y.Y.Y.Y.Y.Y.Y.Y.Y.Y.Y.Y.Y.Y.Y.Y.Y.Y.Y.Y.Y.Y.Y.Y.Y.Y.Y.Y.Y.Y.Y.Y.Y.;.s ; M n h - h M g x E t.",
"r.G x g x N 4 u h v r 4 s | B.B.Y.Y.Y.Y.Y.Y.Y.Y.Y.Y.Y.Y.Y.Y.Y.Y.Y.Y.Y.Y.Y.Y.Y.Y.Y.Y.Y.Y.Y.Y.Y.Y.Y.Y.Y.;.g ; M n h ; x M g n ~ t.",
"r.K x g x N 4 u x v r 4 g +.B.B.Y.Y.Y.Y.Y.Y.Y.Y.Y.Y.Y.Y.Y.Y.Y.Y.Y.Y.Y.Y.Y.Y.Y.Y.Y.Y.Y.Y.Y.Y.Y.Y.Y.Y.Y.1.g ; M x h ; x M g n ~ t.",
"r.K v h v N 4 s x v r 1 g $.B.B.Y.Y.Y.Y.Y.Y.Y.Y.Y.Y.Y.Y.Y.Y.Y.Y.Y.Y.Y.Y.Y.Y.Y.Y.Y.Y.Y.Y.Y.Y.Y.Y.Y.Y.Y.1.g ; M x h ; x M g M ~ h.",
"r.K x x v N 4 s x v r 1 g $.B.B.Y.Y.Y.Y.Y.Y.Y.Y.Y.Y.Y.Y.Y.Y.Y.Y.Y.Y.Y.Y.Y.Y.Y.Y.Y.Y.Y.Y.Y.Y.Y.Y.Y.Y.Y.1.g ; M x x ; x M h M _ c.",
"r.K x g v N 4 u x v r 1 g $.B.B.Y.Y.Y.Y.Y.Y.Y.Y.Y.Y.Y.Y.Y.Y.Y.Y.Y.Y.Y.Y.Y.Y.Y.Y.Y.Y.Y.Y.Y.Y.Y.Y.Y.Y.Y.9.h ; M n x ; x N g M _ c.",
"r.K x g v N 4 u x v r 1 g 2.B.B.Y.Y.Y.Y.Y.Y.Y.Y.Y.Y.Y.Y.Y.Y.Y.Y.Y.Y.Y.Y.Y.Y.Y.Y.Y.Y.Y.Y.Y.Y.Y.Y.Y.Y.Y.9.h ; M n x ; x N h M _ c.",
"&.K v N v x v g v d r r h *.Y.m.Y.Y.Y.Y.Y.Y.Y.Y.Y.Y.Y.Y.Y.Y.Y.Y.Y.Y.Y.Y.Y.Y.Y.Y.Y.Y.Y.Y.Y.Y.Y.Y.B.Y.Y.+.s 9 x k k k x x N x _ t.",
"a.K v N N N B N v v g s v +.Y.B.Y.Y.Y.Y.Y.Y.Y.Y.Y.Y.Y.Y.Y.Y.Y.Y.Y.Y.Y.Y.Y.Y.Y.Y.Y.Y.Y.Y.Y.Y.Y.Y.m.Y.Y.>.x s N M V m N M N M ' k.",
"a.K v v M M v v x N N g N +.Y.Y.Y.Y.Y.Y.Y.Y.Y.Y.Y.Y.Y.Y.Y.Y.Y.Y.Y.Y.Y.Y.Y.Y.Y.Y.Y.Y.Y.Y.Y.Y.Y.Y.m.B.B.2.N x G M N k M x M x _ k.",
"a.K v h v x u s g M x s N *.Y.Y.Y.Y.Y.Y.Y.Y.Y.Y.Y.Y.Y.Y.Y.Y.Y.Y.Y.Y.Y.Y.Y.Y.Y.Y.Y.Y.Y.Y.Y.Y.Y.Y.Y.Y.B.>.M s M x k w x x x M / k.",
"f.K B x N v w u g v s 0 M 1.Y.Y.Y.Y.Y.Y.Y.Y.Y.Y.Y.Y.Y.Y.Y.Y.Y.Y.Y.Y.Y.Y.Y.Y.Y.Y.Y.Y.Y.Y.Y.Y.Y.Y.Y.Y.B.*.g 0 x x d 8 x M M N ' c.",
"2.K B h B N 9 u x B s 8 M 0.Y.Y.Y.Y.Y.Y.Y.Y.Y.Y.Y.Y.Y.Y.Y.Y.Y.Y.Y.Y.Y.Y.Y.Y.Y.Y.Y.Y.Y.Y.Y.Y.Y.Y.Y.Y.Y.*.g 9 x M z 1 M M v N / f.",
"2.K B g B B 8 s x G s 8 N t.B.Y.Y.Y.Y.Y.Y.Y.Y.Y.Y.Y.Y.Y.Y.Y.Y.Y.Y.Y.Y.Y.Y.Y.Y.Y.Y.Y.Y.Y.Y.Y.Y.Y.Y.Y.Y.>.g 9 x N k < M M x N ^ t.",
"g.Y C g B C 8 g k G s 8 N t.B.Y.Y.Y.Y.Y.Y.Y.Y.Y.Y.Y.Y.Y.Y.Y.Y.Y.Y.Y.Y.Y.Y.Y.Y.Y.Y.Y.Y.Y.Y.Y.Y.Y.Y.Y.B.>.g 0 x M x < M M x N ' B.",
"f.K C f G G 8 g v B s 1 C 2.Y.Y.Y.Y.Y.Y.Y.Y.Y.Y.Y.Y.Y.Y.Y.Y.Y.Y.Y.Y.Y.Y.Y.Y.Y.Y.Y.Y.Y.Y.Y.Y.Y.Y.Y.Y.B.*.M 1 N x x < V V x N _ c.",
"&.K B g B B 9 d v B g 4 B *.B.B.Y.Y.Y.Y.Y.Y.Y.Y.Y.Y.Y.Y.Y.Y.Y.Y.Y.Y.Y.Y.Y.Y.Y.Y.Y.Y.Y.Y.Y.Y.Y.Y.B.Y.Y.*.M 7 C N k < N N g M ^ f.",
"f.K B h B B 0 d N B g 9 B *.Y.Y.Y.Y.Y.Y.Y.Y.Y.Y.Y.Y.Y.Y.Y.Y.Y.Y.Y.Y.Y.Y.Y.Y.Y.Y.Y.Y.Y.Y.Y.Y.Y.Y.B.Y.Y.>.x 8 V N k 1 M M x N _ c.",
"g.Y B c N M r s v N s 0 N 2.Y.Y.Y.Y.Y.Y.Y.Y.Y.Y.Y.Y.Y.Y.Y.Y.Y.Y.Y.Y.Y.Y.Y.Y.Y.Y.Y.Y.Y.Y.Y.Y.Y.Y.Y.Y.Y.*.g 9 x M d 8 x M x N ' Y.",
"a.K N c N v s d x v s u M *.Y.Y.Y.Y.Y.Y.Y.Y.Y.Y.Y.Y.Y.Y.Y.Y.Y.Y.Y.Y.Y.Y.Y.Y.Y.Y.Y.Y.Y.Y.Y.Y.Y.Y.Y.Y.Y.>.g r x M k w x x x v _ k.",
"a.K N N N N v v M N x x N 1.Y.Y.Y.Y.Y.Y.Y.Y.Y.Y.Y.Y.Y.Y.Y.Y.Y.Y.Y.Y.Y.Y.Y.Y.Y.Y.Y.Y.Y.Y.Y.Y.Y.Y.Y.Y.B.2.x x N N M k N M N v _ k.",
"f.Y B B B N B N N B M V N t.Y.Y.Y.Y.Y.Y.Y.Y.Y.Y.Y.Y.Y.Y.Y.Y.Y.Y.Y.Y.Y.Y.Y.Y.Y.Y.Y.Y.Y.Y.Y.Y.Y.Y.Y.B.B.2.M N N M V M V M B M +.B.",
"f.Y v N v x N x x M x N M 2.Y.Y.Y.Y.Y.Y.Y.Y.Y.Y.Y.Y.Y.Y.Y.Y.Y.Y.Y.Y.Y.Y.Y.Y.Y.Y.Y.Y.Y.Y.Y.Y.Y.Y.Y.B.m.0.M C M x x x M x N v ' B.",
"f.Y N v N C 9 s M N g 9 C $.Y.Y.Y.Y.Y.Y.Y.Y.Y.Y.Y.Y.Y.Y.Y.Y.Y.Y.Y.Y.Y.Y.Y.Y.Y.Y.Y.Y.Y.Y.Y.Y.Y.Y.Y.k.Y.*.x 9 N M g 4 N v x N ^ g.",
"f.Y N c N C 9 g M N g 9 C $.Y.Y.Y.Y.Y.Y.Y.Y.Y.Y.Y.Y.Y.Y.Y.Y.Y.Y.Y.Y.Y.Y.Y.Y.Y.Y.Y.Y.Y.Y.Y.Y.Y.Y.Y.k.Y.*.x 9 N M g 4 N v x N ^ g.",
"f.Y N v N C 0 s M N g 9 C $.Y.Y.Y.Y.Y.Y.Y.Y.Y.Y.Y.Y.Y.Y.Y.Y.Y.Y.Y.Y.Y.Y.Y.Y.Y.Y.Y.Y.Y.Y.Y.Y.Y.Y.Y.k.Y.*.x 9 N M g 4 N v x N ^ b.",
"f.Y N c N C 0 s M N g 9 C $.Y.Y.Y.Y.Y.Y.Y.Y.Y.Y.Y.Y.Y.Y.Y.Y.Y.Y.Y.Y.Y.Y.Y.Y.Y.Y.Y.Y.Y.Y.Y.Y.Y.Y.Y.k.Y.*.x 9 N M g 4 N v x N ^ b.",
"f.Q N c N G 0 s M N g 9 C 1.Y.Y.Y.Y.Y.Y.Y.Y.Y.Y.Y.Y.Y.Y.Y.Y.Y.Y.Y.Y.Y.Y.Y.Y.Y.Y.Y.Y.Y.Y.Y.Y.Y.Y.Y.k.Y.*.x 9 N N k 1 N v k N ! b.",
"f.Q N c N G 0 s M N g 9 C 1.Y.Y.Y.Y.Y.Y.Y.Y.Y.Y.Y.Y.Y.Y.Y.Y.Y.Y.Y.Y.Y.Y.Y.Y.Y.Y.Y.Y.Y.Y.Y.Y.Y.Y.Y.k.Y.*.x 9 N N k 2 N v x N ! b.",
"e.L b l b D 0 d M B g 9 C 1.Y.Y.Y.Y.Y.Y.Y.Y.Y.Y.Y.Y.Y.Y.Y.Y.Y.Y.Y.Y.Y.Y.Y.Y.Y.Y.Y.Y.Y.Y.Y.Y.Y.Y.Y.k.Y.*.x 9 N M k 1 N b k b ! g.",
"e.L b l b D 0 d M N g 9 C 1.Y.Y.Y.Y.Y.Y.Y.Y.Y.Y.Y.Y.Y.Y.Y.Y.Y.Y.Y.Y.Y.Y.Y.Y.Y.Y.Y.Y.Y.Y.Y.Y.Y.Y.Y.k.Y.*.x 9 N M k 1 b b k b ! g.",
"=.L D b b D 8 g N x s s N 1.Y.Y.Y.Y.Y.Y.Y.Y.Y.Y.Y.Y.Y.Y.Y.Y.Y.Y.Y.Y.Y.Y.Y.Y.Y.Y.Y.Y.Y.Y.Y.Y.Y.Y.Y.Y.Y.' s r b x d 8 l b b b =.-.",
"g.L 5 5 b N k v V N M x N 1.Y.Y.Y.Y.Y.Y.Y.Y.Y.Y.Y.Y.Y.Y.Y.Y.Y.Y.Y.Y.Y.Y.Y.Y.Y.Y.Y.Y.Y.Y.Y.Y.Y.Y.Y.Y.Y.>.M g D b S i b D % 5 P g.",
"-.F X O b b G b N B N M C >.Y.Y.Y.Y.Y.Y.Y.Y.Y.Y.Y.Y.Y.Y.Y.Y.Y.Y.Y.Y.Y.Y.Y.Y.Y.Y.Y.Y.Y.Y.Y.Y.Y.Y.Y.Y.k.>.C x G x x G l b o % , L ",
"b D % > L j b N x N x g V 1.Y.Y.Y.Y.Y.Y.Y.Y.Y.Y.Y.Y.Y.Y.Y.Y.Y.Y.Y.Y.Y.Y.Y.Y.Y.Y.Y.Y.Y.Y.Y.Y.Y.Y.Y.Y.k.>.M s N k k G l Z X % 3 F ",
"I F % & A l w i x v s r N 0.Y.Y.Y.Y.Y.Y.Y.Y.Y.Y.Y.Y.Y.Y.Y.Y.Y.Y.Y.Y.Y.Y.Y.Y.Y.Y.Y.Y.Y.Y.Y.Y.Y.Y.Y.S.Y.:.k 0 l l N 5 l Z   $ L J ",
"-.A @ @ i A 5 i v V s 9 N 0.Y.Y.Y.Y.Y.Y.Y.Y.Y.Y.Y.Y.Y.Y.Y.Y.Y.Y.Y.Y.Y.Y.Y.Y.Y.Y.Y.Y.Y.Y.Y.Y.Y.Y.Y.Y.Y.:.g 8 l N j * l p . @ I J ",
"Z P i l j A w l v G s 9 N 0.A.Y.Y.Y.Y.Y.Y.Y.Y.Y.Y.Y.Y.Y.Y.Y.Y.Y.Y.Y.Y.Y.Y.Y.Y.Y.Y.Y.Y.Y.Y.Y.Y.Y.Y.S.Y.>.g 8 x N i e A p , q J F ",
"P { 5 i e D e e x G g 0 V 0.A.Y.Y.Y.Y.Y.Y.Y.Y.Y.Y.Y.Y.Y.Y.Y.Y.Y.Y.Y.Y.Y.Y.Y.Y.Y.Y.Y.Y.Y.Y.Y.Y.Y.Y.Y.Y.>.g 8 k b j 2 j i e l } l ",
"=.L y y b N 5 d k B k 4 C 9.Y.Y.Y.Y.Y.Y.Y.Y.Y.Y.Y.Y.Y.Y.Y.Y.Y.Y.Y.Y.Y.Y.Y.Y.Y.Y.Y.Y.Y.Y.Y.Y.Y.Y.Y.Y.m.' x 1 N l i w l d 5 l ! | ",
"g.H 3 4 b D w d l D g 7 C 9.Y.Y.Y.Y.Y.Y.Y.Y.Y.Y.Y.Y.Y.Y.Y.Y.Y.Y.Y.Y.Y.Y.Y.Y.Y.Y.Y.Y.Y.Y.Y.Y.Y.Y.Y.Y.B.' x 1 N l f 5 N l # 4 ! r.",
"g.B 3 4 b D w d x V d 8 N 1.Y.Y.Y.Y.Y.Y.Y.Y.Y.Y.Y.Y.Y.Y.Y.Y.Y.Y.Y.Y.Y.Y.Y.Y.Y.Y.Y.Y.Y.Y.Y.Y.Y.Y.k.Y.Y.' g 4 b l k > D B + - | r.",
"&.K i i b b 8 i l M d 9 M 1.Y.Y.Y.Y.Y.Y.Y.Y.Y.Y.Y.Y.Y.Y.Y.Y.Y.Y.Y.Y.Y.Y.Y.Y.Y.Y.Y.Y.Y.Y.Y.Y.Y.Y.k.Y.Y.' s 5 l l l & b G 1 r $.r.",
"&.L b b b b 8 s k M g s M 1.Y.Y.Y.Y.Y.Y.Y.Y.Y.Y.Y.Y.Y.Y.Y.Y.Y.Y.Y.Y.Y.Y.Y.Y.Y.Y.Y.Y.Y.Y.Y.Y.Y.Y.k.Y.Y.+.s r l l f 5 k D g v ! b.",
"g.K k c b b u k l M k k N t.Y.Y.Y.Y.Y.Y.Y.Y.Y.Y.Y.Y.Y.Y.Y.Y.Y.Y.Y.Y.Y.Y.Y.Y.Y.Y.Y.Y.Y.Y.Y.Y.Y.Y.Y.Y.Y.>.d d x b d i l l x v G B.",
"g.K f c k B k N l b g x v t.Y.Y.Y.Y.Y.Y.Y.Y.Y.Y.Y.Y.Y.Y.Y.Y.Y.Y.Y.Y.Y.Y.Y.Y.Y.Y.Y.Y.Y.Y.Y.Y.Y.Y.Y.Y.Y.*.d x x l k k b k g l G B.",
"&.K b b k N x G l x s k g 1.Y.Y.Y.Y.Y.Y.Y.Y.Y.Y.Y.Y.Y.Y.Y.Y.Y.Y.Y.Y.Y.Y.Y.Y.Y.Y.Y.Y.Y.Y.Y.Y.Y.Y.Y.Y.c.' s v l l b k M x g N Q b.",
"f.K v v l N 9 d k l u 8 x r.B.B.Y.Y.Y.Y.Y.Y.Y.Y.Y.Y.Y.Y.Y.Y.Y.Y.Y.Y.Y.Y.Y.Y.Y.Y.Y.Y.Y.Y.Y.Y.Y.Y.Y.Y.Y.;.r 4 k k l 9 N x x v T c.",
"2.C x k x N 8 s k x u 8 x r.B.B.Y.Y.Y.Y.Y.Y.Y.Y.Y.Y.Y.Y.Y.Y.Y.Y.Y.Y.Y.Y.Y.Y.Y.Y.Y.Y.Y.Y.Y.Y.Y.Y.Y.Y.Y.;.r 7 k k d 1 x k g v E c.",
"&.B x f g v 8 i k b u 8 x r.B.B.Y.Y.Y.Y.Y.Y.Y.Y.Y.Y.Y.Y.Y.Y.Y.Y.Y.Y.Y.Y.Y.Y.Y.Y.Y.Y.Y.Y.Y.Y.Y.Y.Y.Y.Y.+.r 7 k k r > k d d x Q c.",
"2.C x x k b 8 i k b u 8 x r.B.B.Y.Y.Y.Y.Y.Y.Y.Y.Y.Y.Y.Y.Y.Y.Y.Y.Y.Y.Y.Y.Y.Y.Y.Y.Y.Y.Y.Y.Y.Y.Y.Y.Y.Y.Y.;.a 1 k k i 2 l k d x T b.",
"2.C x x x N 8 d x b u 5 x r.B.B.Y.Y.Y.Y.Y.Y.Y.Y.Y.Y.Y.Y.Y.Y.Y.Y.Y.Y.Y.Y.Y.Y.Y.Y.Y.Y.Y.Y.Y.Y.Y.Y.Y.Y.Y.+.a 1 k k d 2 x k d x T t.",
"&.B x g g v 5 i k l r 4 x &.B.B.Y.Y.Y.Y.Y.Y.Y.Y.Y.Y.Y.Y.Y.Y.Y.Y.Y.Y.Y.Y.Y.Y.Y.Y.Y.Y.Y.Y.Y.Y.Y.Y.Y.Y.Y.' r 1 k d i < k d s x T h.",
"*.B g g g v 5 r k l r 4 f &.B.B.Y.Y.Y.Y.Y.Y.Y.Y.Y.Y.Y.Y.Y.Y.Y.Y.Y.Y.Y.Y.Y.Y.Y.Y.Y.Y.Y.Y.Y.Y.Y.Y.Y.Y.Y.' r 1 d d r < k d d x T h.",
"$.B g g g v 5 r d x w 2 g $.B.B.Y.Y.Y.Y.Y.Y.Y.Y.Y.Y.Y.Y.Y.Y.Y.Y.Y.Y.Y.Y.Y.Y.Y.Y.Y.Y.Y.Y.Y.Y.Y.Y.Y.Y.Y.+.r 1 d d s 2 l d s x K t.",
"o.G g s l g 4 0 g k s r r e.B.B.Y.Y.Y.Y.Y.Y.Y.Y.Y.Y.Y.Y.Y.Y.Y.Y.Y.Y.Y.Y.Y.Y.Y.Y.Y.Y.Y.Y.Y.Y.Y.Y.Y.f.Y./ u 0 i x r > k k r v B r.",
"| B g s l g 8 r s g g d g r.b.b.Y.Y.Y.Y.Y.Y.Y.Y.Y.Y.Y.Y.Y.Y.Y.Y.Y.Y.Y.Y.Y.Y.Y.Y.Y.Y.Y.Y.Y.Y.Y.B.Y.B.B.' s u s d t 2 x k u x B t.",
"| N g s x x r d g d s s g r.B.B.Y.Y.Y.Y.Y.Y.Y.Y.Y.Y.Y.Y.Y.Y.Y.Y.Y.Y.S.Y.Y.Y.Y.Y.Y.Y.Y.Y.Y.Y.Y.Y.m.f.B.Y s g k d d 8 x k u x B t.",
"| N g s x x u k s s s u s e.B.B.Y.Y.Y.Y.Y.Y.Y.Y.Y.Y.Y.Y.Y.Y.Y.Y.Y.Y.Y.Y.Y.Y.Y.Y.Y.Y.Y.Y.Y.Y.Y.B.Y.B.B.Y s g k i j r k k s k B i.",
"$.N g g g x s g r s g u s b.B.b.Y.Y.Y.Y.Y.Y.S.S.Y.k.k.k.Y.Y.Y.k.Y.Y.Y.Y.Y.k.k.k.Y.Y.Y.Y.Y.Y.Y.Y.k.f.B.K r s g s j d k k d g B t.",
"$.v g g s g s s s s s r u r.B.Y.Y.Y.Y.Y.Y.Y.Y.Y.Y.Y.Y.Y.Y.Y.Y.k.Y.Y.Y.Y.Y.Y.Y.Y.Y.Y.Y.Y.Y.Y.Y.Y.Y.B.B.Q u s d s d j d d g d V t.",
"+.x g g s g s s g r 0 r r G T ' / / / / ' ' ' ' ' ' ' ' >.>./ ^ R ^ / ' 8.0.0.k.Y.Y.Y.Y.Y.Y.Y.Y.Y.f.B.E s s u r s g s d g s V i.",
"| g g g s g s s s 8 0 g r r ; : ; : : : : : 7 7 7 7 7 7 7 7 : : : : 7 7 7 7 7 7 : : : : : : : : : = 9 9 4 0 s s r d s s k s V t.",
"Q x s g s u r r s B +.B.Y.Y.B.Y.k.k.k.k.k.k.k.k.0.0.8.8.8.0.0.8.>.>.>.' ' / / / ^ ^ R R C C C C C N M C Y K v 0 9 u s s s s N t.",
"r.M r 0 r g C K 1.c.Y.Y.Y.c.c.Y.Y.Y.Y.Y.Y.Y.Y.Y.Y.Y.Y.Y.Y.Y.Y.Y.Y.Y.Y.Y.Y.Y.Y.Y.Y.Y.Y.Y.Y.Y.k.k.Y.c.k.Y.Y.Y.f.' N h r r s s N o.",
"/ h s M U ;.Y.Y.Y.Y.Y.Y.Y.Y.Y.Y.Y.Y.Y.Y.Y.Y.Y.Y.Y.Y.Y.Y.Y.Y.Y.Y.S.S.S.Y.Y.Y.Y.Y.Y.Y.Y.Y.Y.Y.Y.Y.Y.Y.Y.Y.Y.Y.Y.Y.k.' V n x g N O.",
"1.T ~ c.Y.Y.Y.k.A.c.A.Y.Y.Y.Y.Y.Y.Y.Y.Y.Y.Y.Y.Y.Y.Y.Y.Y.Y.Y.Y.Y.Y.Y.Y.Y.Y.Y.Y.Y.Y.Y.Y.Y.Y.Y.Y.Y.Y.Y.Y.Y.Y.Y.Y.Y.Y.Y.Y.1.G g M 4."
};
