/* XPM */
static char *_15d9a406ea74febf50d44bcb894ec4dfPnMArsVC0ezLoXG[] = {
/* columns rows colors chars-per-pixel */
"58 64 188 2 ",
"   c None",
".  c #000000",
"X  c #090302",
"o  c #050903",
"O  c #0B0D05",
"+  c #0A0A0A",
"@  c #130504",
"#  c #1A0706",
"$  c #1A0806",
"%  c #151E0C",
"&  c #181F0C",
"*  c #141414",
"=  c #1B1B1B",
"-  c #0F0E10",
";  c #2B0C09",
":  c #250D09",
">  c #330E0B",
",  c #3D110E",
"<  c #36170E",
"1  c #2F100B",
"2  c #1C260E",
"3  c #15220D",
"4  c #1D2910",
"5  c #233113",
"6  c #2A3C17",
"7  c #202810",
"8  c #222222",
"9  c #2C2C2C",
"0  c #353535",
"q  c #3D3D3D",
"w  c #3C3B32",
"e  c #303C22",
"r  c #591713",
"t  c #671A16",
"y  c #5D2A19",
"u  c #752B1D",
"i  c #773D39",
"p  c #2E4119",
"a  c #32461B",
"s  c #364C1D",
"d  c #384E1E",
"f  c #3A511F",
"g  c #3C5520",
"h  c #3E5921",
"j  c #344027",
"k  c #645D1C",
"l  c #756C1A",
"z  c #435622",
"x  c #5E5623",
"c  c #43423C",
"v  c #496727",
"b  c #4E6D2A",
"n  c #586E2B",
"m  c #54752D",
"M  c #577B2F",
"N  c #587B2F",
"B  c #58742D",
"V  c #5D7F31",
"C  c #696327",
"Z  c #726B28",
"A  c #637C31",
"S  c #767231",
"D  c #454545",
"F  c #494949",
"G  c #47494A",
"H  c #535353",
"J  c #5B5B5B",
"K  c #6E7E5D",
"L  c #646464",
"P  c #6B6A6A",
"I  c #747474",
"U  c #7C7C7C",
"Y  c #767875",
"T  c #8D261F",
"R  c #962921",
"E  c #873723",
"W  c #9A3826",
"Q  c #A22C24",
"!  c #AD2E26",
"~  c #B53128",
"^  c #CA372D",
"/  c #C9372D",
"(  c #D33A2F",
")  c #D63D30",
"_  c #E13E32",
"`  c #E93E33",
"'  c #F63F34",
"]  c #F93E35",
"[  c #884C29",
"{  c #984329",
"}  c #B1442D",
"|  c #957837",
" . c #B9703A",
".. c #DD4935",
"X. c #DE5D3A",
"o. c #D35837",
"O. c #EC4334",
"+. c #ED4B37",
"@. c #EB4E38",
"#. c #E64534",
"$. c #F44336",
"%. c #F94236",
"&. c #F44837",
"*. c #E55539",
"=. c #EB5239",
"-. c #E15B3A",
";. c #E55939",
":. c #DB633B",
">. c #D36B3C",
",. c #D7663C",
"<. c #CC743E",
"1. c #C6783E",
"2. c #D1743E",
"3. c #C76D3B",
"4. c #8C4F4B",
"5. c #C75148",
"6. c #F55A4E",
"7. c #DC7D76",
"8. c #E07F78",
"9. c #F66B60",
"0. c #5D8231",
"q. c #628934",
"w. c #6A9538",
"e. c #6E9A3B",
"r. c #679137",
"t. c #709D3C",
"y. c #73A33E",
"u. c #72835F",
"i. c #7FB244",
"p. c #79AA41",
"a. c #95923E",
"s. c #A6863D",
"d. c #FFED3A",
"f. c #FFF13A",
"g. c #B68E43",
"h. c #BB8A41",
"j. c #A59341",
"k. c #AB9C44",
"l. c #AF9743",
"z. c #B29443",
"x. c #B09944",
"c. c #AF8F49",
"v. c #9DAD47",
"b. c #93A443",
"n. c #83B746",
"m. c #84B946",
"M. c #8EBF49",
"N. c #8BB749",
"B. c #99B247",
"V. c #96B548",
"C. c #9AB348",
"Z. c #92BB49",
"A. c #97B948",
"S. c #87B753",
"D. c #89AA43",
"F. c #A5A345",
"G. c #A9A145",
"H. c #A1A946",
"J. c #879D67",
"K. c #83847D",
"L. c #8E8C78",
"P. c #979375",
"I. c #A39D6E",
"U. c #A9A26A",
"Y. c #B0A866",
"T. c #C08240",
"R. c #D18B78",
"E. c #F8847B",
"W. c #F8887F",
"Q. c #8BC44A",
"!. c #8CC84C",
"~. c #91C64C",
"^. c #DED04D",
"/. c #E8D749",
"(. c #F0DF44",
"). c #F2E045",
"_. c #7F7F82",
"`. c #807F81",
"'. c #808081",
"]. c #8B8A8A",
"[. c #969696",
"{. c #A7BE80",
"}. c #A3C280",
"|. c #BFC1C2",
" X c #C1C1C1",
".X c #EFEFEF",
"XX c #FFFFFF",
"oX c #F4F4F4",
/* pixels */
"                                            . . . . . . . . . . . . . . . . .                                       ",
"                                            . . . . . . . . . . . . . . . . .                                       ",
"                                            2 4 4 4 4 4 4 4 4 4 4 4 4 4 4 4 2                                       ",
"                                      . . o w.m.n.n.n.n.n.n.n.n.n.n.n.n.n.m.N . .                                   ",
"                                      . . o e.!.Q.Q.Q.Q.Q.Q.Q.Q.Q.Q.Q.Q.Q.!.0.. .                                   ",
"                                      6 s f p.!.Q.Q.Q.Q.Q.Q.Q.Q.Q.Q.Q.Q.Q.!.e.s s 5                                 ",
"                                  . . m !.Q.Q.Q.Q.Q.Q.Q.Q.Q.Q.Q.Q.Q.Q.Q.Q.Q.Q.Q.!.h . .                             ",
"                                  . . m !.Q.Q.Q.Q.Q.Q.Q.Q.Q.Q.Q.Q.Q.Q.Q.Q.Q.Q.Q.!.h . .                             ",
"                                  . . m !.Q.Q.Q.Q.Q.Q.Q.Q.Q.Q.Q.Q.Q.Q.Q.Q.Q.Q.Q.!.w.b b 4 .                         ",
"                                  . . m !.Q.Q.Q.Q.Q.Q.Q.Q.Q.Q.Q.Q.Q.Q.Q.Q.Q.Q.Q.Q.!.!.Q.5 . .                       ",
"                                  o o M !.Q.Q.Q.Q.Q.Q.Q.M.M.M.M.M.Q.Q.Q.Q.Q.Q.Q.Q.Q.M.N.5 . .                       ",
"                            . . a w.w.i.!.Q.Q.Q.Q.Q.Q.G.:.:.:.:.,.v.Q.Q.Q.Q.Q.Q.Q.g.:.o.< . .                       ",
"                            . . s !.!.!.Q.Q.Q.Q.Q.Q.Q.z.%.%.%.%.&.H.Q.Q.Q.Q.Q.Q.Q.1.%.O., . .                       ",
"                            . . s Q.Q.Q.Q.Q.Q.Q.Q.Q.Q.j.( ( ( ( ( j.B.V.Q.Q.Z.B.B. .( ^ > . .                       ",
"                            . . s Q.Q.Q.Q.Q.Q.Q.Q.Q.!.A $ # # # : } =.:.Z.Q.k.=.=.u # # . . .                       ",
"                            . . s Q.Q.Q.Q.Q.Q.Q.Q.Q.!.M . . . . X ~ %.*.Z.Q.x.%.%.t . . . . .                       ",
"                            . . s Q.Q.Q.Q.Q.Q.Q.Z.G.G.S . . . . X T ~ } N.Q.a.! ! i G D * . .                       ",
"                            . . s Q.Q.Q.Q.Q.Q.Q.v.@.$.O.    . . . . . 3 i.!.0.. . ].XX.XD . .                       ",
"                            . . s !.!.!.Q.Q.Q.Q.v.+.%.%.    . . . . . % i.!.0.. . ].XXoXD . .                       ",
"                              . 6 v v t.!.Q.Q.Q.v.+.%.9.    D . . . . % i.!.0.. . L XX.X8 . .                       ",
"                                  . . m !.Q.Q.Q.v.+.' W.XXXXP . . . . % i.!.0.. .       . . .                       ",
"                                  . . m !.Q.Q.Q.v.+.' W.XXXXP . . . . & i.!.0.. .       . . .                       ",
"                            . . . . . m !.Q.Q.Q.v.+.%.6.E.E.5.Q Q Q Q { N.Q.a.Q Q / %.O.; . .                       ",
"                            . . . . . m !.!.Q.Q.v.+.%.%.$.$.%.%.%.%.%.;.Z.Q.x.%.%.%.%.O., . .                       ",
"                            O O O @ @ n n.n.Q.Q.v.*.+.#._ _ _ _ _ _ _ o.D.i.j.@.+.#._ ) , . .                       ",
"                . . . . . 2 e.y.| / / y 3 4 y.!.M.v.C.S ; ; ; ; ; ; ; : 3 % z v.v.x ; ; X . . . . .                 ",
"                . . . . . 2 m.!.z.%.%.t . o e.!.!.Q.!.M . . . . . . . . . . 6 Q.!.h . . . . . . . .                 ",
"                ; > ; 7 2 a m.Q.k.X.-.u ; < A t.y.Q.!.q.2 2 2 2 2 2 2 2 2 2 d e.t.z 2 2 2 2 2 1 > ;                 ",
"            . . R ` ..b.n.m.Q.Q.Q.Z.Z.3.` ) < o 4 n.!.M.n.n.n.n.n.n.n.n.n.m.V O o v m.n.n.n.b...` Q . .             ",
"            . . R %.+.v.!.Q.Q.Q.Q.Q.Q.<.] ` ; . 3 n.!.!.!.!.!.!.!.!.!.!.!.~.0.. . v !.Q.Q.Q.C.+.%.! . .             ",
"            . . [ 2.<.g.z.k.Q.Q.Q.Q.Q.z.<.3.u r y B M N N N N N N N N N N N v s a q.!.Q.G.z.g.<.2.[ . .             ",
"            . . N !.Z.-.%.X.Z.Q.Q.Q.Q.Q.Q.Z.X.%./ @ . . . . . . . . . . . . p Q.Q.Q.Q.M.:.%.*.V.!.q.. .             ",
"            . . M !.Z.-.' -.Z.Q.Q.!.!.Q.Q.Z.X.%./ @ . . . . . . . . . . . . p Q.!.!.Q.M.:.' *.V.!.q.. .             ",
"      . . 9 F F K J.J.c.h.z.Q.!.e.g g w.!.Q.l.h.s.n b b b b b b b b b b b b v g g r.!.Q.k.h.g.J.J.u.F F 9 . .       ",
"      . . 0 '.'.'.`.K.S.Q.Q.Q.!.m . . m !.Q.Q.Q.Q.!.!.!.!.!.!.!.!.!.!.!.!.~.0.. . v !.Q.Q.Q.S.K.`.'.'.'.q . .       ",
"      . . 0 K.K.K.'.K.S.m.m.m.Q.m . . B ~.M.Q.Q.Q.Q.Q.Q.Q.Q.Q.Q.Q.Q.Q.Q.M.~.V . . v M.m.m.m.S.K.'.K.K.K.c . .       ",
"      . . x /.^.I._.Y j 5 5 5 5 % . . E :.>.v.Q.Q.Q.Q.Q.Q.Q.Q.Q.Q.Q.Q.V.>.:.{ . . % 5 5 5 5 e Y '.I.^./.C . .       ",
"      . . k d.d.Y._.I * . . . . . . . R %.O.H.Q.Q.Q.Q.Q.Q.Q.Q.Q.Q.Q.Q.v.+.%.Q . . . . . . . - I '.U.d.f.l . .       ",
"      . . k (.(.U.'.Y 8 + + . . . . . E =.-.v.Q.Q.V.B.Z.Q.Q.Z.B.B.M.Q.B.X.=.W . . . . . + * 8 I _.I.(.).Z . .       ",
"      . . w L.L.K.'.U I I J + . . . . n A.V.Q.Q.v.-.@.1.Q.Q.T.@.*.H.Q.Q.V.A.A . . . . + H I I U '.K.L.L.c . .       ",
"      . . 0 '._.'.'.'.'.'.L + . . . . m !.Q.Q.!.v.+.] >.Q.Q.1.] $.H.!.Q.Q.!.0.. . . . + L '.'.'.'.'._.'.q . .       ",
"      . . 0 '.'.'.'.'.'.'.L + . . . . C G.G.G.G.z.>.:.h.Q.Q.g.:.>.z.G.G.G.G.Z . . . . + J '.U U '.'.'.'.q . .       ",
"      . . 0 '.'.'.'.'.'.'.L + . . . . R &.$.$.$.X.V.Q.Q.Q.Q.Q.Q.Z.:.$.$.&.&.Q . . . . + J '.U U '.'.'.'.q . .       ",
"      . . 0 '.'.'.'.'.'.'.L + . . . . R %.%.%.' ;.Z.Q.Q.Q.Q.Q.Q.M.X.' %.%.%.Q . . . . + L '.'.'.'.'.'.'.q . .       ",
"      . . 9 D D D D D D D q + . . . . 4.8.7.7.7.R.{.}.}.}.}.}.}.{.R.7.7.7.8.4.. . . . + 0 D D D D D D D 9 . .       ",
"            . . . . . . . .       . . I  X|.|.|. X X X X X X X X X|.|.|.|. X'.. .       . . . . . . . .             ",
"            . . . . . . . .       . . I  X X X X X X X X X X X X X X X X X X'.. .       . . . . . . . .             ",
"                            . . 9 H H U [.[.[.[.[.[.[.[.[.[.[.[.[.[.[.[.[.[.'.H H 9 . .                             ",
"                            . . 0 '.'.'.U U U U U U U U U U '.'.U U U U U U '.'.'.0 . .                             ",
"                            + + 0 '.'.'.'.'.'.'.'.'.'.U I I U '.'.'.'.'.'.'.'.'.'.q + +                             ",
"                      . . = L P I '.'.'.'.'.'.'.'.'.'.J = * H '.'.'.'.'.'.'.'.'.'.I P L = . .                       ",
"                      . . = Y '.'.'.'.'.'.'.'.'.'.'.'.H . . F '.'.'.'.'.'.'.'.'.'.'.'.U 8 . .                       ",
"                      . . = Y '.'.'.'.'.'.'.'.'.U P P D . . D P P Y '.'.'.'.'.'.'.'.'.U 8 . .                       ",
"                . . . . . = Y '.'.'.'.'.'.'.'.'.P * + +     + + + L '.'.'.'.'.'.'.'.'.U 8 . . . . .                 ",
"                . . . . . = Y '.'.'.'.'.'.'.'.'.P + . .     . . + L '.'.'.'.'.'.'.'.'.U = . . . . .                 ",
"                8 9 9 9 9 q Y '.'.'.'.'.'.U J H F + .         . + D H J U '.'.'.'.'.'.U D 9 9 9 9 9                 ",
"      . . . . . H '.'.'.'.'.'.'.'.'.'.'.'.Y = . .                 . . * I '.'.'.'.'.'.'.'.'.'.'.'.J . . . . .       ",
"      . . . . . H '.'.'.'.'.'.'.'.'.'.'.'.Y = . .                 . . * I '.'.'.'.'.'.'.'.'.'.'.'.J . . . . .       ",
". . = D D D D D P '.'.'.'.'.'.'.'.'.'.'.'.Y = . .                 . . * I '.'.'.'.'.'.'.'.'.'.'.'.P F D D D D = . . ",
". . = U '.'.'.'.'.'.'.'.'.'.'.'.'.'.'.'.'.Y = . .                 . . * I '.'.'.'.'.'.'.'.'.'.'.'.'.'.'.'.'.U 8 . . ",
". . = I U U U U U U U U U U U U U U U U U I = . .                 . . * I U U U U U U U U U U U U U U U U U Y 8 . . ",
". . + 8 8 8 8 8 8 8 8 8 8 8 8 8 8 8 8 8 8 8 + . .                 . . + = 8 8 8 8 8 8 8 8 8 8 8 8 8 8 8 8 8 8 + . . ",
". . . . . . . . . . . . . . . . . . . . . . . . .                 . . . . . . . . . . . . . . . . . . . . . . . . . ",
". . . . . . . . . . . . . . . . . . . . . . . . .                 . . . . . . . . . . . . . . . . . . . . . . . . . "
};
